<svg width="20" height="20" viewBox="0 0 20 20" fill="none" xmlns="http://www.w3.org/2000/svg">
<g id="Component 1">
<path id="Vector" d="M5 6.66663C5 5.34054 5.52678 4.06877 6.46447 3.13109C7.40215 2.19341 8.67392 1.66663 10 1.66663C11.3261 1.66663 12.5979 2.19341 13.5355 3.13109C14.4732 4.06877 15 5.34054 15 6.66663C15 12.5 17.5 14.1666 17.5 14.1666H2.5C2.5 14.1666 5 12.5 5 6.66663Z" stroke="#535756" stroke-width="1.66667" stroke-linecap="round" stroke-linejoin="round"/>
<path id="Vector_2" d="M8.58301 17.5C8.72249 17.7537 8.92755 17.9653 9.17675 18.1127C9.42595 18.26 9.71016 18.3378 9.99967 18.3378C10.2892 18.3378 10.5734 18.26 10.8226 18.1127C11.0718 17.9653 11.2769 17.7537 11.4163 17.5" stroke="#535756" stroke-width="1.66667" stroke-linecap="round" stroke-linejoin="round"/>
</g>
</svg>
