<svg width="17" height="16" viewBox="0 0 17 16" fill="none" xmlns="http://www.w3.org/2000/svg">
<path d="M2.25342 2H6.25342C6.96066 2 7.63894 2.28095 8.13904 2.78105C8.63913 3.28115 8.92008 3.95942 8.92008 4.66667V14C8.92008 13.4696 8.70937 12.9609 8.3343 12.5858C7.95923 12.2107 7.45052 12 6.92008 12H2.25342V2Z" stroke="#71717A" stroke-width="1.33333" stroke-linecap="round" stroke-linejoin="round"/>
<path d="M15.5866 2H11.5866C10.8793 2 10.2011 2.28095 9.70097 2.78105C9.20087 3.28115 8.91992 3.95942 8.91992 4.66667V14C8.91992 13.4696 9.13064 12.9609 9.50571 12.5858C9.88078 12.2107 10.3895 12 10.9199 12H15.5866V2Z" stroke="#71717A" stroke-width="1.33333" stroke-linecap="round" stroke-linejoin="round"/>
</svg>
