<svg xmlns="http://www.w3.org/2000/svg" width="32" height="32" viewBox="0 0 32 32" fill="none">
  <path d="M15.9951 6.66666C15.9966 6.13337 15.8915 5.60515 15.686 5.11306C15.4804 4.62098 15.1785 4.17496 14.7981 3.80126C14.4176 3.42755 13.9663 3.13369 13.4706 2.93697C12.9749 2.74025 12.4449 2.64463 11.9117 2.65575C11.3785 2.66686 10.853 2.78448 10.3659 3.00168C9.87885 3.21889 9.44014 3.5313 9.07559 3.92054C8.71104 4.30977 8.428 4.76798 8.24312 5.2682C8.05824 5.76842 7.97526 6.30057 7.99905 6.83333C7.21532 7.03485 6.48772 7.41206 5.87136 7.93641C5.255 8.46076 4.76604 9.11849 4.44151 9.85979C4.11698 10.6011 3.9654 11.4065 3.99824 12.2151C4.03108 13.0236 4.24748 13.8141 4.63105 14.5267C3.95663 15.0746 3.42629 15.779 3.08617 16.5786C2.74606 17.3782 2.60646 18.2488 2.67954 19.1146C2.75261 19.9805 3.03614 20.8154 3.50546 21.5467C3.97478 22.278 4.61567 22.8835 5.37239 23.3107C5.27894 24.0336 5.33471 24.7681 5.53624 25.4687C5.73777 26.1693 6.08078 26.8211 6.5441 27.3839C7.00742 27.9468 7.5812 28.4086 8.23001 28.741C8.87882 29.0734 9.58889 29.2692 10.3164 29.3164C11.0438 29.3636 11.7732 29.2612 12.4596 29.0155C13.1459 28.7697 13.7746 28.3859 14.3067 27.8877C14.8389 27.3895 15.2633 26.7874 15.5537 26.1188C15.8441 25.4501 15.9943 24.729 15.9951 24V6.66666Z" stroke="#09090B" stroke-width="2.66667" stroke-linecap="round" stroke-linejoin="round"/>
  <path d="M15.995 6.66666C15.9934 6.13337 16.0985 5.60515 16.3041 5.11306C16.5096 4.62098 16.8115 4.17496 17.192 3.80126C17.5724 3.42755 18.0238 3.13369 18.5195 2.93697C19.0152 2.74025 19.5452 2.64463 20.0784 2.65575C20.6115 2.66686 21.1371 2.78448 21.6242 3.00168C22.1112 3.21889 22.5499 3.5313 22.9145 3.92054C23.279 4.30977 23.5621 4.76798 23.7469 5.2682C23.9318 5.76842 24.0148 6.30057 23.991 6.83333C24.7747 7.03485 25.5023 7.41206 26.1187 7.93641C26.7351 8.46076 27.224 9.11849 27.5486 9.85979C27.8731 10.6011 28.0247 11.4065 27.9918 12.2151C27.959 13.0236 27.7426 13.8141 27.359 14.5267C28.0334 15.0746 28.5638 15.779 28.9039 16.5786C29.244 17.3782 29.3836 18.2488 29.3105 19.1146C29.2375 19.9805 28.9539 20.8154 28.4846 21.5467C28.0153 22.278 27.3744 22.8835 26.6177 23.3107C26.7111 24.0336 26.6554 24.7681 26.4538 25.4687C26.2523 26.1693 25.9093 26.8211 25.446 27.3839C24.9826 27.9468 24.4089 28.4086 23.7601 28.741C23.1112 29.0734 22.4012 29.2692 21.6737 29.3164C20.9462 29.3636 20.2168 29.2612 19.5305 29.0155C18.8442 28.7697 18.2155 28.3859 17.6833 27.8877C17.1512 27.3895 16.7268 26.7874 16.4364 26.1188C16.146 25.4501 15.9958 24.729 15.995 24V6.66666Z" stroke="#09090B" stroke-width="2.66667" stroke-linecap="round" stroke-linejoin="round"/>
  <path d="M19.995 17.3333C18.8756 16.9395 17.8981 16.2227 17.1861 15.2733C16.4741 14.324 16.0596 13.1849 15.995 12C15.9304 13.1849 15.5159 14.324 14.8039 15.2733C14.0919 16.2227 13.1144 16.9395 11.995 17.3333" stroke="#09090B" stroke-width="2.66667" stroke-linecap="round" stroke-linejoin="round"/>
  <path d="M23.4603 8.66668C23.783 8.10746 23.9656 7.47843 23.9923 6.83334" stroke="#09090B" stroke-width="2.66667" stroke-linecap="round" stroke-linejoin="round"/>
  <path d="M7.99902 6.83334C8.02539 7.47832 8.20746 8.10734 8.52969 8.66668" stroke="#09090B" stroke-width="2.66667" stroke-linecap="round" stroke-linejoin="round"/>
  <path d="M4.63098 14.528C4.8749 14.3293 5.13592 14.1527 5.41098 14" stroke="#09090B" stroke-width="2.66667" stroke-linecap="round" stroke-linejoin="round"/>
  <path d="M26.579 14C26.854 14.1527 27.1151 14.3293 27.359 14.528" stroke="#09090B" stroke-width="2.66667" stroke-linecap="round" stroke-linejoin="round"/>
  <path d="M7.99498 24C7.07609 24.0004 6.17267 23.7634 5.37231 23.312" stroke="#09090B" stroke-width="2.66667" stroke-linecap="round" stroke-linejoin="round"/>
  <path d="M26.6177 23.312C25.8173 23.7634 24.9139 24.0004 23.995 24" stroke="#09090B" stroke-width="2.66667" stroke-linecap="round" stroke-linejoin="round"/>
</svg>