<svg xmlns="http://www.w3.org/2000/svg" width="17" height="16" viewBox="0 0 17 16" fill="none">
  <path d="M8.72998 11.3334H8.73665" stroke="#71717A" stroke-width="1.33333" stroke-linecap="round" stroke-linejoin="round"/>
  <path d="M10.7298 1.33337H4.72982C4.3762 1.33337 4.03706 1.47385 3.78701 1.7239C3.53696 1.97395 3.39648 2.31309 3.39648 2.66671V13.3334C3.39648 13.687 3.53696 14.0261 3.78701 14.2762C4.03706 14.5262 4.3762 14.6667 4.72982 14.6667H12.7298C13.0834 14.6667 13.4226 14.5262 13.6726 14.2762C13.9227 14.0261 14.0632 13.687 14.0632 13.3334V4.66671L10.7298 1.33337Z" stroke="#71717A" stroke-width="1.33333" stroke-linecap="round" stroke-linejoin="round"/>
  <path d="M6.79688 5.99995C6.95686 5.55904 7.26672 5.18838 7.6723 4.95277C8.07787 4.71716 8.55335 4.63159 9.01561 4.71102C9.47788 4.79044 9.89753 5.02982 10.2012 5.38729C10.5049 5.74476 10.6732 6.19759 10.6769 6.66662C10.6769 7.99995 8.67687 8.66662 8.67687 8.66662" stroke="#71717A" stroke-width="1.33333" stroke-linecap="round" stroke-linejoin="round"/>
</svg>