<svg width="272" height="200" viewBox="0 0 272 200" fill="none" xmlns="http://www.w3.org/2000/svg">
<path d="M65 141H267" stroke="#CCCCCC" stroke-dasharray="3 3"/>
<path d="M65 107H267" stroke="#CCCCCC" stroke-dasharray="3 3"/>
<path d="M65 73H267" stroke="#CCCCCC" stroke-dasharray="3 3"/>
<path d="M65 5H267" stroke="#CCCCCC" stroke-dasharray="3 3"/>
<path d="M65 5V141" stroke="#CCCCCC" stroke-dasharray="3 3"/>
<path d="M105.4 5V141" stroke="#CCCCCC" stroke-dasharray="3 3"/>
<path d="M145.8 5V141" stroke="#CCCCCC" stroke-dasharray="3 3"/>
<path d="M186.2 5V141" stroke="#CCCCCC" stroke-dasharray="3 3"/>
<path d="M267 5V141" stroke="#CCCCCC" stroke-dasharray="3 3"/>
<path d="M65 141H267" stroke="#666666"/>
<path d="M65 147V141" stroke="#666666"/>
<path d="M57.3324 147.724H58.7415V156.042C58.7415 156.784 58.6051 157.415 58.3324 157.934C58.0597 158.453 57.6752 158.847 57.179 159.116C56.6828 159.385 56.0975 159.519 55.4233 159.519C54.7869 159.519 54.2206 159.404 53.7244 159.172C53.2282 158.938 52.8381 158.604 52.554 158.172C52.2699 157.741 52.1278 157.227 52.1278 156.633H53.5142C53.5142 156.962 53.5956 157.25 53.7585 157.496C53.9252 157.739 54.1525 157.928 54.4403 158.065C54.7282 158.201 55.0559 158.269 55.4233 158.269C55.8286 158.269 56.1733 158.184 56.4574 158.013C56.7415 157.843 56.9574 157.593 57.1051 157.263C57.2566 156.93 57.3324 156.523 57.3324 156.042V147.724ZM63.9517 159.565C63.3987 159.565 62.8968 159.46 62.446 159.252C61.9953 159.04 61.6373 158.735 61.3722 158.337C61.107 157.936 60.9744 157.451 60.9744 156.883C60.9744 156.383 61.0729 155.977 61.2699 155.667C61.4669 155.352 61.7301 155.106 62.0597 154.928C62.3892 154.75 62.7528 154.618 63.1506 154.53C63.5521 154.44 63.9555 154.368 64.3608 154.315C64.8911 154.246 65.321 154.195 65.6506 154.161C65.9839 154.123 66.2263 154.061 66.3778 153.974C66.5331 153.887 66.6108 153.735 66.6108 153.519V153.474C66.6108 152.913 66.4574 152.477 66.1506 152.167C65.8475 151.856 65.3873 151.701 64.7699 151.701C64.1297 151.701 63.6278 151.841 63.2642 152.121C62.9006 152.402 62.6449 152.701 62.4972 153.019L61.2244 152.565C61.4517 152.034 61.7547 151.621 62.1335 151.326C62.5161 151.027 62.9328 150.818 63.3835 150.701C63.8381 150.58 64.285 150.519 64.7244 150.519C65.0047 150.519 65.3267 150.553 65.6903 150.621C66.0578 150.686 66.4119 150.82 66.7528 151.025C67.0975 151.229 67.3835 151.538 67.6108 151.951C67.8381 152.364 67.9517 152.917 67.9517 153.61V159.36H66.6108V158.178H66.5426C66.4517 158.368 66.3002 158.57 66.0881 158.786C65.8759 159.002 65.5938 159.186 65.2415 159.337C64.8892 159.489 64.4593 159.565 63.9517 159.565ZM64.1562 158.36C64.6866 158.36 65.1335 158.256 65.4972 158.047C65.8646 157.839 66.1411 157.57 66.3267 157.241C66.5161 156.911 66.6108 156.565 66.6108 156.201V154.974C66.554 155.042 66.429 155.104 66.2358 155.161C66.0464 155.214 65.8267 155.262 65.5767 155.303C65.3305 155.341 65.09 155.375 64.8551 155.405C64.6241 155.432 64.4366 155.455 64.2926 155.474C63.9441 155.519 63.6184 155.593 63.3153 155.695C63.0161 155.794 62.7737 155.943 62.5881 156.144C62.4063 156.341 62.3153 156.61 62.3153 156.951C62.3153 157.417 62.4877 157.769 62.8324 158.008C63.1809 158.243 63.6222 158.36 64.1562 158.36ZM71.7401 154.11V159.36H70.3991V150.633H71.6946V151.996H71.8082C72.0128 151.553 72.3234 151.197 72.7401 150.928C73.1567 150.655 73.6946 150.519 74.3537 150.519C74.9446 150.519 75.4616 150.64 75.9048 150.883C76.348 151.121 76.6927 151.485 76.9389 151.974C77.1851 152.458 77.3082 153.072 77.3082 153.815V159.36H75.9673V153.905C75.9673 153.22 75.7893 152.686 75.4332 152.303C75.0772 151.917 74.5885 151.724 73.9673 151.724C73.5393 151.724 73.1567 151.816 72.8196 152.002C72.4863 152.188 72.223 152.458 72.0298 152.815C71.8366 153.171 71.7401 153.602 71.7401 154.11Z" fill="#666666"/>
<path d="M105.4 147V141" stroke="#666666"/>
<path d="M92.8095 159.36V147.724H99.7868V148.974H94.2186V152.905H99.264V154.155H94.2186V159.36H92.8095ZM105.037 159.542C104.196 159.542 103.47 159.356 102.861 158.985C102.255 158.61 101.787 158.087 101.457 157.417C101.131 156.743 100.969 155.958 100.969 155.065C100.969 154.171 101.131 153.383 101.457 152.701C101.787 152.015 102.245 151.481 102.832 151.099C103.423 150.712 104.113 150.519 104.9 150.519C105.355 150.519 105.804 150.595 106.247 150.746C106.69 150.898 107.094 151.144 107.457 151.485C107.821 151.822 108.111 152.269 108.327 152.826C108.542 153.383 108.65 154.068 108.65 154.883V155.451H101.923V154.292H107.287C107.287 153.799 107.188 153.36 106.991 152.974C106.798 152.587 106.522 152.282 106.162 152.059C105.806 151.835 105.385 151.724 104.9 151.724C104.366 151.724 103.904 151.856 103.514 152.121C103.128 152.383 102.83 152.724 102.622 153.144C102.414 153.565 102.309 154.015 102.309 154.496V155.269C102.309 155.928 102.423 156.487 102.65 156.945C102.881 157.4 103.202 157.746 103.611 157.985C104.02 158.22 104.495 158.337 105.037 158.337C105.389 158.337 105.707 158.288 105.991 158.19C106.279 158.087 106.527 157.936 106.736 157.735C106.944 157.53 107.105 157.277 107.219 156.974L108.514 157.337C108.378 157.777 108.148 158.163 107.827 158.496C107.505 158.826 107.107 159.083 106.633 159.269C106.16 159.451 105.628 159.542 105.037 159.542ZM110.872 159.36V147.724H112.213V152.019H112.327C112.425 151.868 112.561 151.674 112.736 151.44C112.914 151.201 113.167 150.989 113.497 150.803C113.83 150.614 114.281 150.519 114.849 150.519C115.584 150.519 116.232 150.703 116.792 151.07C117.353 151.438 117.791 151.958 118.105 152.633C118.419 153.307 118.577 154.102 118.577 155.019C118.577 155.943 118.419 156.744 118.105 157.422C117.791 158.097 117.355 158.619 116.798 158.991C116.241 159.358 115.599 159.542 114.872 159.542C114.311 159.542 113.863 159.449 113.525 159.263C113.188 159.074 112.929 158.86 112.747 158.621C112.565 158.379 112.425 158.178 112.327 158.019H112.167V159.36H110.872ZM112.19 154.996C112.19 155.655 112.287 156.237 112.48 156.741C112.673 157.241 112.955 157.633 113.327 157.917C113.698 158.197 114.152 158.337 114.69 158.337C115.251 158.337 115.719 158.19 116.094 157.894C116.472 157.595 116.756 157.193 116.946 156.69C117.139 156.182 117.236 155.618 117.236 154.996C117.236 154.383 117.141 153.83 116.952 153.337C116.766 152.841 116.484 152.449 116.105 152.161C115.73 151.869 115.258 151.724 114.69 151.724C114.145 151.724 113.686 151.862 113.315 152.138C112.944 152.411 112.664 152.794 112.474 153.286C112.285 153.775 112.19 154.345 112.19 154.996Z" fill="#666666"/>
<path d="M145.8 147V141" stroke="#666666"/>
<path d="M132.607 147.724H134.289L138.244 157.383H138.38L142.335 147.724H144.016V159.36H142.698V150.519H142.585L138.948 159.36H137.676L134.039 150.519H133.926V159.36H132.607V147.724ZM149.228 159.565C148.675 159.565 148.173 159.46 147.722 159.252C147.272 159.04 146.914 158.735 146.649 158.337C146.383 157.936 146.251 157.451 146.251 156.883C146.251 156.383 146.349 155.977 146.546 155.667C146.743 155.352 147.006 155.106 147.336 154.928C147.666 154.75 148.029 154.618 148.427 154.53C148.828 154.44 149.232 154.368 149.637 154.315C150.167 154.246 150.597 154.195 150.927 154.161C151.26 154.123 151.503 154.061 151.654 153.974C151.81 153.887 151.887 153.735 151.887 153.519V153.474C151.887 152.913 151.734 152.477 151.427 152.167C151.124 151.856 150.664 151.701 150.046 151.701C149.406 151.701 148.904 151.841 148.541 152.121C148.177 152.402 147.921 152.701 147.774 153.019L146.501 152.565C146.728 152.034 147.031 151.621 147.41 151.326C147.792 151.027 148.209 150.818 148.66 150.701C149.114 150.58 149.561 150.519 150.001 150.519C150.281 150.519 150.603 150.553 150.967 150.621C151.334 150.686 151.688 150.82 152.029 151.025C152.374 151.229 152.66 151.538 152.887 151.951C153.114 152.364 153.228 152.917 153.228 153.61V159.36H151.887V158.178H151.819C151.728 158.368 151.577 158.57 151.364 158.786C151.152 159.002 150.87 159.186 150.518 159.337C150.166 159.489 149.736 159.565 149.228 159.565ZM149.433 158.36C149.963 158.36 150.41 158.256 150.774 158.047C151.141 157.839 151.417 157.57 151.603 157.241C151.792 156.911 151.887 156.565 151.887 156.201V154.974C151.83 155.042 151.705 155.104 151.512 155.161C151.323 155.214 151.103 155.262 150.853 155.303C150.607 155.341 150.366 155.375 150.131 155.405C149.9 155.432 149.713 155.455 149.569 155.474C149.22 155.519 148.895 155.593 148.592 155.695C148.292 155.794 148.05 155.943 147.864 156.144C147.683 156.341 147.592 156.61 147.592 156.951C147.592 157.417 147.764 157.769 148.109 158.008C148.457 158.243 148.899 158.36 149.433 158.36ZM155.676 159.36V150.633H156.971V151.951H157.062C157.221 151.519 157.509 151.169 157.926 150.9C158.342 150.631 158.812 150.496 159.335 150.496C159.433 150.496 159.556 150.498 159.704 150.502C159.852 150.506 159.963 150.512 160.039 150.519V151.883C159.994 151.871 159.89 151.854 159.727 151.832C159.568 151.805 159.399 151.792 159.221 151.792C158.797 151.792 158.418 151.881 158.085 152.059C157.755 152.233 157.494 152.476 157.301 152.786C157.111 153.093 157.016 153.443 157.016 153.837V159.36H155.676Z" fill="#666666"/>
<path d="M186.2 147V141" stroke="#666666"/>
<path d="M174.829 159.36H173.351L177.624 147.724H179.079L183.351 159.36H181.874L178.397 149.565H178.306L174.829 159.36ZM175.374 154.815H181.329V156.065H175.374V154.815ZM184.982 162.633V150.633H186.278V152.019H186.437C186.535 151.868 186.672 151.674 186.846 151.44C187.024 151.201 187.278 150.989 187.607 150.803C187.94 150.614 188.391 150.519 188.959 150.519C189.694 150.519 190.342 150.703 190.903 151.07C191.463 151.438 191.901 151.958 192.215 152.633C192.53 153.307 192.687 154.102 192.687 155.019C192.687 155.943 192.53 156.744 192.215 157.422C191.901 158.097 191.465 158.619 190.908 158.991C190.351 159.358 189.709 159.542 188.982 159.542C188.422 159.542 187.973 159.449 187.636 159.263C187.298 159.074 187.039 158.86 186.857 158.621C186.675 158.379 186.535 158.178 186.437 158.019H186.323V162.633H184.982ZM186.3 154.996C186.3 155.655 186.397 156.237 186.59 156.741C186.783 157.241 187.065 157.633 187.437 157.917C187.808 158.197 188.262 158.337 188.8 158.337C189.361 158.337 189.829 158.19 190.204 157.894C190.583 157.595 190.867 157.193 191.056 156.69C191.249 156.182 191.346 155.618 191.346 154.996C191.346 154.383 191.251 153.83 191.062 153.337C190.876 152.841 190.594 152.449 190.215 152.161C189.84 151.869 189.369 151.724 188.8 151.724C188.255 151.724 187.797 151.862 187.425 152.138C187.054 152.411 186.774 152.794 186.584 153.286C186.395 153.775 186.3 154.345 186.3 154.996ZM194.732 159.36V150.633H196.028V151.951H196.119C196.278 151.519 196.565 151.169 196.982 150.9C197.399 150.631 197.869 150.496 198.391 150.496C198.49 150.496 198.613 150.498 198.761 150.502C198.908 150.506 199.02 150.512 199.096 150.519V151.883C199.05 151.871 198.946 151.854 198.783 151.832C198.624 151.805 198.456 151.792 198.278 151.792C197.853 151.792 197.475 151.881 197.141 152.059C196.812 152.233 196.55 152.476 196.357 152.786C196.168 153.093 196.073 153.443 196.073 153.837V159.36H194.732Z" fill="#666666"/>
<path d="M267 147V141" stroke="#666666"/>
<path d="M250.161 147.724H251.57V156.042C251.57 156.784 251.433 157.415 251.161 157.934C250.888 158.453 250.503 158.847 250.007 159.116C249.511 159.385 248.926 159.519 248.251 159.519C247.615 159.519 247.049 159.404 246.553 159.172C246.056 158.938 245.666 158.604 245.382 158.172C245.098 157.741 244.956 157.227 244.956 156.633H246.342C246.342 156.962 246.424 157.25 246.587 157.496C246.753 157.739 246.981 157.928 247.268 158.065C247.556 158.201 247.884 158.269 248.251 158.269C248.657 158.269 249.001 158.184 249.286 158.013C249.57 157.843 249.786 157.593 249.933 157.263C250.085 156.93 250.161 156.523 250.161 156.042V147.724ZM259.712 155.792V150.633H261.053V159.36H259.712V157.883H259.621C259.416 158.326 259.098 158.703 258.666 159.013C258.234 159.32 257.689 159.474 257.03 159.474C256.484 159.474 256 159.354 255.575 159.116C255.151 158.873 254.818 158.51 254.575 158.025C254.333 157.536 254.212 156.921 254.212 156.178V150.633H255.553V156.087C255.553 156.724 255.731 157.231 256.087 157.61C256.446 157.989 256.905 158.178 257.462 158.178C257.795 158.178 258.134 158.093 258.479 157.922C258.827 157.752 259.119 157.491 259.354 157.138C259.592 156.786 259.712 156.337 259.712 155.792ZM264.849 154.11V159.36H263.509V150.633H264.804V151.996H264.918C265.122 151.553 265.433 151.197 265.849 150.928C266.266 150.655 266.804 150.519 267.463 150.519C268.054 150.519 268.571 150.64 269.014 150.883C269.457 151.121 269.802 151.485 270.048 151.974C270.295 152.458 270.418 153.072 270.418 153.815V159.36H269.077V153.905C269.077 153.22 268.899 152.686 268.543 152.303C268.187 151.917 267.698 151.724 267.077 151.724C266.649 151.724 266.266 151.816 265.929 152.002C265.596 152.188 265.332 152.458 265.139 152.815C264.946 153.171 264.849 153.602 264.849 154.11Z" fill="#666666"/>
<path d="M65 5V141" stroke="#666666"/>
<path d="M59 141H65" stroke="#666666"/>
<path d="M52 145.839C51.1439 145.839 50.4148 145.606 49.8125 145.14C49.2102 144.671 48.75 143.991 48.4318 143.1C48.1136 142.207 47.9545 141.127 47.9545 139.862C47.9545 138.604 48.1136 137.53 48.4318 136.64C48.7538 135.746 49.2159 135.064 49.8182 134.595C50.4242 134.121 51.1515 133.885 52 133.885C52.8485 133.885 53.5739 134.121 54.1761 134.595C54.7822 135.064 55.2443 135.746 55.5625 136.64C55.8845 137.53 56.0455 138.604 56.0455 139.862C56.0455 141.127 55.8864 142.207 55.5682 143.1C55.25 143.991 54.7898 144.671 54.1875 145.14C53.5852 145.606 52.8561 145.839 52 145.839ZM52 144.589C52.8485 144.589 53.5076 144.18 53.9773 143.362C54.447 142.544 54.6818 141.377 54.6818 139.862C54.6818 138.854 54.5739 137.996 54.358 137.288C54.1458 136.58 53.839 136.04 53.4375 135.669C53.0398 135.297 52.5606 135.112 52 135.112C51.1591 135.112 50.5019 135.527 50.0284 136.356C49.5549 137.182 49.3182 138.35 49.3182 139.862C49.3182 140.869 49.4242 141.725 49.6364 142.43C49.8485 143.135 50.1534 143.671 50.5511 144.038C50.9527 144.405 51.4356 144.589 52 144.589Z" fill="#666666"/>
<path d="M59 107H65" stroke="#666666"/>
<path d="M38.517 111.68V110.657L42.358 106.453C42.8087 105.96 43.1799 105.532 43.4716 105.169C43.7633 104.801 43.9792 104.457 44.1193 104.135C44.2633 103.809 44.3352 103.468 44.3352 103.112C44.3352 102.703 44.2367 102.349 44.0398 102.049C43.8466 101.75 43.5814 101.519 43.2443 101.356C42.9072 101.193 42.5284 101.112 42.108 101.112C41.661 101.112 41.2708 101.205 40.9375 101.39C40.608 101.572 40.3523 101.828 40.1705 102.157C39.9924 102.487 39.9034 102.873 39.9034 103.316H38.5625C38.5625 102.635 38.7197 102.036 39.0341 101.521C39.3485 101.006 39.7765 100.604 40.3182 100.316C40.8636 100.028 41.4754 99.8845 42.1534 99.8845C42.8352 99.8845 43.4394 100.028 43.9659 100.316C44.4924 100.604 44.9053 100.992 45.2045 101.481C45.5038 101.97 45.6534 102.513 45.6534 103.112C45.6534 103.54 45.5758 103.958 45.4205 104.367C45.2689 104.773 45.0038 105.225 44.625 105.725C44.25 106.222 43.7292 106.828 43.0625 107.544L40.4489 110.339V110.43H45.858V111.68H38.517ZM52 111.839C51.1439 111.839 50.4148 111.606 49.8125 111.14C49.2102 110.671 48.75 109.991 48.4318 109.1C48.1136 108.207 47.9545 107.127 47.9545 105.862C47.9545 104.604 48.1136 103.53 48.4318 102.64C48.7538 101.746 49.2159 101.064 49.8182 100.595C50.4242 100.121 51.1515 99.8845 52 99.8845C52.8485 99.8845 53.5739 100.121 54.1761 100.595C54.7822 101.064 55.2443 101.746 55.5625 102.64C55.8845 103.53 56.0455 104.604 56.0455 105.862C56.0455 107.127 55.8864 108.207 55.5682 109.1C55.25 109.991 54.7898 110.671 54.1875 111.14C53.5852 111.606 52.8561 111.839 52 111.839ZM52 110.589C52.8485 110.589 53.5076 110.18 53.9773 109.362C54.447 108.544 54.6818 107.377 54.6818 105.862C54.6818 104.854 54.5739 103.996 54.358 103.288C54.1458 102.58 53.839 102.04 53.4375 101.669C53.0398 101.297 52.5606 101.112 52 101.112C51.1591 101.112 50.5019 101.527 50.0284 102.356C49.5549 103.182 49.3182 104.35 49.3182 105.862C49.3182 106.869 49.4242 107.725 49.6364 108.43C49.8485 109.135 50.1534 109.671 50.5511 110.038C50.9527 110.405 51.4356 110.589 52 110.589Z" fill="#666666"/>
<path d="M59 73H65" stroke="#666666"/>
<path d="M37.6662 75.2936V74.1345L42.7798 66.0436H43.6207V67.8391H43.0526L39.1889 73.9527V74.0436H46.0753V75.2936H37.6662ZM43.1435 77.68V74.9414V74.4016V66.0436H44.4844V77.68H43.1435ZM52 77.8391C51.1439 77.8391 50.4148 77.6061 49.8125 77.1402C49.2102 76.6705 48.75 75.9906 48.4318 75.1004C48.1136 74.2065 47.9545 73.127 47.9545 71.8618C47.9545 70.6042 48.1136 69.5304 48.4318 68.6402C48.7538 67.7463 49.2159 67.0645 49.8182 66.5948C50.4242 66.1213 51.1515 65.8845 52 65.8845C52.8485 65.8845 53.5739 66.1213 54.1761 66.5948C54.7822 67.0645 55.2443 67.7463 55.5625 68.6402C55.8845 69.5304 56.0455 70.6042 56.0455 71.8618C56.0455 73.127 55.8864 74.2065 55.5682 75.1004C55.25 75.9906 54.7898 76.6705 54.1875 77.1402C53.5852 77.6061 52.8561 77.8391 52 77.8391ZM52 76.5891C52.8485 76.5891 53.5076 76.18 53.9773 75.3618C54.447 74.5436 54.6818 73.377 54.6818 71.8618C54.6818 70.8542 54.5739 69.9963 54.358 69.2879C54.1458 68.5796 53.839 68.0398 53.4375 67.6686C53.0398 67.2974 52.5606 67.1118 52 67.1118C51.1591 67.1118 50.5019 67.5266 50.0284 68.3561C49.5549 69.1819 49.3182 70.3504 49.3182 71.8618C49.3182 72.8694 49.4242 73.7254 49.6364 74.43C49.8485 75.1345 50.1534 75.6705 50.5511 76.0379C50.9527 76.4054 51.4356 76.5891 52 76.5891Z" fill="#666666"/>
<path d="M59 5H65" stroke="#666666"/>
<path d="M42.0724 16.8391C41.2921 16.8391 40.6027 16.7008 40.0043 16.4243C39.4096 16.144 38.9455 15.7595 38.6122 15.2709C38.2789 14.7785 38.1141 14.2179 38.1179 13.5891C38.1141 13.0967 38.2107 12.6421 38.4077 12.2254C38.6046 11.805 38.8736 11.4546 39.2145 11.1743C39.5592 10.8902 39.9437 10.7103 40.3679 10.6345V10.5664C39.8111 10.4224 39.3679 10.1099 39.0384 9.62886C38.7088 9.14401 38.5459 8.59287 38.5497 7.97545C38.5459 7.38454 38.6955 6.85613 38.9986 6.39022C39.3016 5.92431 39.7183 5.55689 40.2486 5.28795C40.7827 5.01901 41.3906 4.88454 42.0724 4.88454C42.7467 4.88454 43.349 5.01901 43.8793 5.28795C44.4096 5.55689 44.8262 5.92431 45.1293 6.39022C45.4361 6.85613 45.5914 7.38454 45.5952 7.97545C45.5914 8.59287 45.4228 9.14401 45.0895 9.62886C44.7599 10.1099 44.3224 10.4224 43.777 10.5664V10.6345C44.1974 10.7103 44.5762 10.8902 44.9134 11.1743C45.2505 11.4546 45.5194 11.805 45.7202 12.2254C45.9209 12.6421 46.0232 13.0967 46.027 13.5891C46.0232 14.2179 45.8527 14.7785 45.5156 15.2709C45.1823 15.7595 44.7183 16.144 44.1236 16.4243C43.5327 16.7008 42.849 16.8391 42.0724 16.8391ZM42.0724 15.5891C42.599 15.5891 43.0535 15.5039 43.4361 15.3334C43.8187 15.1629 44.1141 14.9224 44.3224 14.6118C44.5308 14.3012 44.6368 13.9376 44.6406 13.5209C44.6368 13.0815 44.5232 12.6933 44.2997 12.3561C44.0762 12.019 43.7713 11.7539 43.3849 11.5607C43.0024 11.3675 42.5649 11.2709 42.0724 11.2709C41.5762 11.2709 41.133 11.3675 40.7429 11.5607C40.3565 11.7539 40.0516 12.019 39.8281 12.3561C39.6084 12.6933 39.5005 13.0815 39.5043 13.5209C39.5005 13.9376 39.6009 14.3012 39.8054 14.6118C40.0137 14.9224 40.3111 15.1629 40.6974 15.3334C41.0838 15.5039 41.5421 15.5891 42.0724 15.5891ZM42.0724 10.0664C42.4891 10.0664 42.8584 9.98302 43.1804 9.81636C43.5062 9.64969 43.7618 9.41674 43.9474 9.11749C44.133 8.81825 44.2277 8.46787 44.2315 8.06636C44.2277 7.67242 44.1349 7.32961 43.9531 7.03795C43.7713 6.74249 43.5194 6.51522 43.1974 6.35613C42.8755 6.19325 42.5005 6.11181 42.0724 6.11181C41.6368 6.11181 41.2562 6.19325 40.9304 6.35613C40.6046 6.51522 40.3527 6.74249 40.1747 7.03795C39.9967 7.32961 39.9096 7.67242 39.9134 8.06636C39.9096 8.46787 39.9986 8.81825 40.1804 9.11749C40.366 9.41674 40.6217 9.64969 40.9474 9.81636C41.2732 9.98302 41.6482 10.0664 42.0724 10.0664ZM52 16.8391C51.1439 16.8391 50.4148 16.6061 49.8125 16.1402C49.2102 15.6705 48.75 14.9906 48.4318 14.1004C48.1136 13.2065 47.9545 12.127 47.9545 10.8618C47.9545 9.60424 48.1136 8.53037 48.4318 7.64022C48.7538 6.74628 49.2159 6.06446 49.8182 5.59476C50.4242 5.12128 51.1515 4.88454 52 4.88454C52.8485 4.88454 53.5739 5.12128 54.1761 5.59476C54.7822 6.06446 55.2443 6.74628 55.5625 7.64022C55.8845 8.53037 56.0455 9.60424 56.0455 10.8618C56.0455 12.127 55.8864 13.2065 55.5682 14.1004C55.25 14.9906 54.7898 15.6705 54.1875 16.1402C53.5852 16.6061 52.8561 16.8391 52 16.8391ZM52 15.5891C52.8485 15.5891 53.5076 15.18 53.9773 14.3618C54.447 13.5436 54.6818 12.377 54.6818 10.8618C54.6818 9.85424 54.5739 8.99628 54.358 8.28795C54.1458 7.57961 53.839 7.03984 53.4375 6.66863C53.0398 6.29742 52.5606 6.11181 52 6.11181C51.1591 6.11181 50.5019 6.52658 50.0284 7.35613C49.5549 8.18189 49.3182 9.35045 49.3182 10.8618C49.3182 11.8694 49.4242 12.7254 49.6364 13.43C49.8485 14.1345 50.1534 14.6705 50.5511 15.0379C50.9527 15.4054 51.4356 15.5891 52 15.5891Z" fill="#666666"/>
<path d="M65 30.5C78.467 26.25 91.933 22 105.4 22C118.867 22 132.333 25.4 145.8 25.4C159.267 25.4 172.733 20.583 186.2 18.6C199.667 16.617 213.133 15.2 226.6 13.5C240.067 11.8 253.533 10.1 267 8.40002" stroke="#295B58"/>
<path d="M65 33.5C66.6569 33.5 68 32.1569 68 30.5C68 28.8431 66.6569 27.5 65 27.5C63.3431 27.5 62 28.8431 62 30.5C62 32.1569 63.3431 33.5 65 33.5Z" fill="white" stroke="#387975"/>
<path d="M105.4 25C107.057 25 108.4 23.6569 108.4 22C108.4 20.3431 107.057 19 105.4 19C103.744 19 102.4 20.3431 102.4 22C102.4 23.6569 103.744 25 105.4 25Z" fill="white" stroke="#387975"/>
<path d="M145.8 28.4C147.457 28.4 148.8 27.0569 148.8 25.4C148.8 23.7432 147.457 22.4 145.8 22.4C144.143 22.4 142.8 23.7432 142.8 25.4C142.8 27.0569 144.143 28.4 145.8 28.4Z" fill="white" stroke="#387975"/>
<path d="M186.2 21.6C187.857 21.6 189.2 20.2569 189.2 18.6C189.2 16.9432 187.857 15.6 186.2 15.6C184.543 15.6 183.2 16.9432 183.2 18.6C183.2 20.2569 184.543 21.6 186.2 21.6Z" fill="white" stroke="#387975"/>
<path d="M226.6 16.5C228.256 16.5 229.6 15.1569 229.6 13.5C229.6 11.8431 228.256 10.5 226.6 10.5C224.943 10.5 223.6 11.8431 223.6 13.5C223.6 15.1569 224.943 16.5 226.6 16.5Z" fill="white" stroke="#387975"/>
<path d="M267 11.4C268.657 11.4 270 10.0569 270 8.40002C270 6.74317 268.657 5.40002 267 5.40002C265.343 5.40002 264 6.74317 264 8.40002C264 10.0569 265.343 11.4 267 11.4Z" fill="white" stroke="#387975"/>
</svg>
