<svg width="257" height="200" viewBox="0 0 257 200" fill="none" xmlns="http://www.w3.org/2000/svg">
<path d="M114.119 30.5H221.823" stroke="#CCCCCC" stroke-dasharray="3 3"/>
<path d="M114.119 64.5H221.823" stroke="#CCCCCC" stroke-dasharray="3 3"/>
<path d="M114.119 98.5H221.823" stroke="#CCCCCC" stroke-dasharray="3 3"/>
<path d="M114.119 132.5H221.823" stroke="#CCCCCC" stroke-dasharray="3 3"/>
<path d="M114.119 5H221.823" stroke="#CCCCCC" stroke-dasharray="3 3"/>
<path d="M114.119 141H221.823" stroke="#CCCCCC" stroke-dasharray="3 3"/>
<path d="M114.119 5V141" stroke="#CCCCCC" stroke-dasharray="3 3"/>
<path d="M167.971 5V141" stroke="#CCCCCC" stroke-dasharray="3 3"/>
<path d="M221.823 5V141" stroke="#CCCCCC" stroke-dasharray="3 3"/>
<path d="M114.119 141H221.823" stroke="#666666"/>
<path d="M114.119 147V141" stroke="#666666"/>
<path d="M114.119 159.519C113.263 159.519 112.534 159.286 111.932 158.821C111.329 158.351 110.869 157.671 110.551 156.781C110.233 155.887 110.074 154.807 110.074 153.542C110.074 152.285 110.233 151.211 110.551 150.321C110.873 149.427 111.335 148.745 111.937 148.275C112.543 147.802 113.271 147.565 114.119 147.565C114.968 147.565 115.693 147.802 116.295 148.275C116.901 148.745 117.363 149.427 117.682 150.321C118.004 151.211 118.165 152.285 118.165 153.542C118.165 154.807 118.005 155.887 117.687 156.781C117.369 157.671 116.909 158.351 116.307 158.821C115.704 159.286 114.975 159.519 114.119 159.519ZM114.119 158.269C114.968 158.269 115.627 157.86 116.096 157.042C116.566 156.224 116.801 155.057 116.801 153.542C116.801 152.535 116.693 151.677 116.477 150.968C116.265 150.26 115.958 149.72 115.557 149.349C115.159 148.978 114.68 148.792 114.119 148.792C113.278 148.792 112.621 149.207 112.147 150.036C111.674 150.862 111.437 152.031 111.437 153.542C111.437 154.55 111.543 155.406 111.755 156.11C111.968 156.815 112.272 157.351 112.67 157.718C113.072 158.086 113.555 158.269 114.119 158.269Z" fill="#666666"/>
<path d="M167.971 147V141" stroke="#666666"/>
<path d="M162.944 159.519C162.278 159.519 161.677 159.387 161.143 159.122C160.609 158.857 160.181 158.493 159.859 158.031C159.537 157.569 159.361 157.042 159.331 156.451H160.694C160.747 156.978 160.986 157.413 161.41 157.758C161.838 158.099 162.35 158.269 162.944 158.269C163.422 158.269 163.846 158.158 164.217 157.934C164.592 157.711 164.886 157.404 165.098 157.014C165.314 156.62 165.422 156.175 165.422 155.679C165.422 155.171 165.31 154.718 165.086 154.321C164.867 153.919 164.564 153.603 164.177 153.372C163.791 153.141 163.35 153.023 162.853 153.019C162.497 153.016 162.132 153.071 161.757 153.184C161.382 153.294 161.073 153.436 160.831 153.61L159.512 153.451L160.217 147.724H166.262V148.974H161.399L160.99 152.406H161.058C161.297 152.216 161.596 152.059 161.956 151.934C162.315 151.809 162.69 151.747 163.081 151.747C163.793 151.747 164.427 151.917 164.984 152.258C165.545 152.595 165.984 153.057 166.302 153.644C166.624 154.232 166.785 154.902 166.785 155.656C166.785 156.398 166.618 157.061 166.285 157.644C165.956 158.224 165.501 158.682 164.922 159.019C164.342 159.353 163.683 159.519 162.944 159.519ZM172.838 159.519C171.982 159.519 171.252 159.286 170.65 158.821C170.048 158.351 169.588 157.671 169.27 156.781C168.951 155.887 168.792 154.807 168.792 153.542C168.792 152.285 168.951 151.211 169.27 150.321C169.592 149.427 170.054 148.745 170.656 148.275C171.262 147.802 171.989 147.565 172.838 147.565C173.686 147.565 174.412 147.802 175.014 148.275C175.62 148.745 176.082 149.427 176.4 150.321C176.722 151.211 176.883 152.285 176.883 153.542C176.883 154.807 176.724 155.887 176.406 156.781C176.088 157.671 175.627 158.351 175.025 158.821C174.423 159.286 173.694 159.519 172.838 159.519ZM172.838 158.269C173.686 158.269 174.345 157.86 174.815 157.042C175.285 156.224 175.52 155.057 175.52 153.542C175.52 152.535 175.412 151.677 175.196 150.968C174.984 150.26 174.677 149.72 174.275 149.349C173.877 148.978 173.398 148.792 172.838 148.792C171.997 148.792 171.34 149.207 170.866 150.036C170.393 150.862 170.156 152.031 170.156 153.542C170.156 154.55 170.262 155.406 170.474 156.11C170.686 156.815 170.991 157.351 171.389 157.718C171.79 158.086 172.273 158.269 172.838 158.269Z" fill="#666666"/>
<path d="M221.822 147V141" stroke="#666666"/>
<path d="M213.399 147.723V159.359H211.99V149.2H211.922L209.081 151.087V149.655L211.99 147.723H213.399ZM220.541 159.518C219.685 159.518 218.956 159.286 218.353 158.82C217.751 158.35 217.291 157.67 216.973 156.78C216.655 155.886 216.496 154.806 216.496 153.541C216.496 152.284 216.655 151.21 216.973 150.32C217.295 149.426 217.757 148.744 218.359 148.274C218.965 147.801 219.692 147.564 220.541 147.564C221.389 147.564 222.115 147.801 222.717 148.274C223.323 148.744 223.785 149.426 224.103 150.32C224.425 151.21 224.586 152.284 224.586 153.541C224.586 154.806 224.427 155.886 224.109 156.78C223.791 157.67 223.331 158.35 222.728 158.82C222.126 159.286 221.397 159.518 220.541 159.518ZM220.541 158.268C221.389 158.268 222.049 157.859 222.518 157.041C222.988 156.223 223.223 155.056 223.223 153.541C223.223 152.534 223.115 151.676 222.899 150.967C222.687 150.259 222.38 149.719 221.978 149.348C221.581 148.977 221.102 148.791 220.541 148.791C219.7 148.791 219.043 149.206 218.569 150.036C218.096 150.861 217.859 152.03 217.859 153.541C217.859 154.549 217.965 155.405 218.177 156.109C218.389 156.814 218.694 157.35 219.092 157.717C219.494 158.085 219.977 158.268 220.541 158.268ZM230.541 159.518C229.685 159.518 228.956 159.286 228.353 158.82C227.751 158.35 227.291 157.67 226.973 156.78C226.655 155.886 226.496 154.806 226.496 153.541C226.496 152.284 226.655 151.21 226.973 150.32C227.295 149.426 227.757 148.744 228.359 148.274C228.965 147.801 229.692 147.564 230.541 147.564C231.389 147.564 232.115 147.801 232.717 148.274C233.323 148.744 233.785 149.426 234.103 150.32C234.425 151.21 234.586 152.284 234.586 153.541C234.586 154.806 234.427 155.886 234.109 156.78C233.791 157.67 233.331 158.35 232.728 158.82C232.126 159.286 231.397 159.518 230.541 159.518ZM230.541 158.268C231.389 158.268 232.049 157.859 232.518 157.041C232.988 156.223 233.223 155.056 233.223 153.541C233.223 152.534 233.115 151.676 232.899 150.967C232.687 150.259 232.38 149.719 231.978 149.348C231.581 148.977 231.102 148.791 230.541 148.791C229.7 148.791 229.043 149.206 228.569 150.036C228.096 150.861 227.859 152.03 227.859 153.541C227.859 154.549 227.965 155.405 228.177 156.109C228.389 156.814 228.694 157.35 229.092 157.717C229.494 158.085 229.977 158.268 230.541 158.268Z" fill="#666666"/>
<path d="M105.224 22.8196H110.999" stroke="#666666"/>
<path d="M33.8519 25.7399H29.5959L28.8119 27.9099H27.4679L30.9959 18.2079H32.4659L35.9799 27.9099H34.6359L33.8519 25.7399ZM33.4879 24.7039L31.7239 19.7759L29.9599 24.7039H33.4879ZM41.2555 20.0979C42.1888 20.0979 42.9448 20.3826 43.5235 20.9519C44.1021 21.5119 44.3915 22.3239 44.3915 23.3879V27.9099H43.1315V23.5699C43.1315 22.8046 42.9401 22.2212 42.5575 21.8199C42.1748 21.4092 41.6521 21.2039 40.9895 21.2039C40.3175 21.2039 39.7808 21.4139 39.3795 21.8339C38.9875 22.2539 38.7915 22.8652 38.7915 23.6679V27.9099H37.5175V20.2379H38.7915V21.3299C39.0435 20.9379 39.3841 20.6346 39.8135 20.4199C40.2521 20.2052 40.7328 20.0979 41.2555 20.0979ZM45.9965 24.0459C45.9965 23.2619 46.1552 22.5759 46.4725 21.9879C46.7899 21.3906 47.2239 20.9286 47.7745 20.6019C48.3345 20.2752 48.9552 20.1119 49.6365 20.1119C50.3085 20.1119 50.8919 20.2566 51.3865 20.5459C51.8812 20.8352 52.2499 21.1992 52.4925 21.6379V20.2379H53.7805V27.9099H52.4925V26.4819C52.2405 26.9299 51.8625 27.3032 51.3585 27.6019C50.8639 27.8912 50.2852 28.0359 49.6225 28.0359C48.9412 28.0359 48.3252 27.8679 47.7745 27.5319C47.2239 27.1959 46.7899 26.7246 46.4725 26.1179C46.1552 25.5112 45.9965 24.8206 45.9965 24.0459ZM52.4925 24.0599C52.4925 23.4812 52.3759 22.9772 52.1425 22.5479C51.9092 22.1186 51.5919 21.7919 51.1905 21.5679C50.7985 21.3346 50.3645 21.2179 49.8885 21.2179C49.4125 21.2179 48.9785 21.3299 48.5865 21.5539C48.1945 21.7779 47.8819 22.1046 47.6485 22.5339C47.4152 22.9632 47.2985 23.4672 47.2985 24.0459C47.2985 24.6339 47.4152 25.1472 47.6485 25.5859C47.8819 26.0152 48.1945 26.3466 48.5865 26.5799C48.9785 26.8039 49.4125 26.9159 49.8885 26.9159C50.3645 26.9159 50.7985 26.8039 51.1905 26.5799C51.5919 26.3466 51.9092 26.0152 52.1425 25.5859C52.3759 25.1472 52.4925 24.6386 52.4925 24.0599ZM57.4875 21.2879V25.8099C57.4875 26.1832 57.5668 26.4492 57.7255 26.6079C57.8841 26.7572 58.1595 26.8319 58.5515 26.8319H59.4895V27.9099H58.3415C57.6321 27.9099 57.1001 27.7466 56.7455 27.4199C56.3908 27.0932 56.2135 26.5566 56.2135 25.8099V21.2879H55.2195V20.2379H56.2135V18.3059H57.4875V20.2379H59.4895V21.2879H57.4875ZM64.3791 28.0359C63.6604 28.0359 63.0071 27.8726 62.4191 27.5459C61.8404 27.2192 61.3831 26.7572 61.0471 26.1599C60.7204 25.5532 60.5571 24.8532 60.5571 24.0599C60.5571 23.2759 60.7251 22.5852 61.0611 21.9879C61.4064 21.3812 61.8731 20.9192 62.4611 20.6019C63.0491 20.2752 63.7071 20.1119 64.4351 20.1119C65.1631 20.1119 65.8211 20.2752 66.4091 20.6019C66.9971 20.9192 67.4591 21.3766 67.7951 21.9739C68.1404 22.5712 68.3131 23.2666 68.3131 24.0599C68.3131 24.8532 68.1357 25.5532 67.7811 26.1599C67.4357 26.7572 66.9644 27.2192 66.3671 27.5459C65.7697 27.8726 65.1071 28.0359 64.3791 28.0359ZM64.3791 26.9159C64.8364 26.9159 65.2657 26.8086 65.6671 26.5939C66.0684 26.3792 66.3904 26.0572 66.6331 25.6279C66.8851 25.1986 67.0111 24.6759 67.0111 24.0599C67.0111 23.4439 66.8897 22.9212 66.6471 22.4919C66.4044 22.0626 66.0871 21.7452 65.6951 21.5399C65.3031 21.3252 64.8784 21.2179 64.4211 21.2179C63.9544 21.2179 63.5251 21.3252 63.1331 21.5399C62.7504 21.7452 62.4424 22.0626 62.2091 22.4919C61.9757 22.9212 61.8591 23.4439 61.8591 24.0599C61.8591 24.6852 61.9711 25.2126 62.1951 25.6419C62.4284 26.0712 62.7364 26.3932 63.1191 26.6079C63.5017 26.8132 63.9217 26.9159 64.3791 26.9159ZM79.2142 20.0979C79.8115 20.0979 80.3435 20.2239 80.8102 20.4759C81.2768 20.7186 81.6455 21.0872 81.9162 21.5819C82.1868 22.0766 82.3222 22.6786 82.3222 23.3879V27.9099H81.0622V23.5699C81.0622 22.8046 80.8708 22.2212 80.4882 21.8199C80.1148 21.4092 79.6062 21.2039 78.9622 21.2039C78.2995 21.2039 77.7722 21.4186 77.3802 21.8479C76.9882 22.2679 76.7922 22.8792 76.7922 23.6819V27.9099H75.5322V23.5699C75.5322 22.8046 75.3408 22.2212 74.9582 21.8199C74.5848 21.4092 74.0762 21.2039 73.4322 21.2039C72.7695 21.2039 72.2422 21.4186 71.8502 21.8479C71.4582 22.2679 71.2622 22.8792 71.2622 23.6819V27.9099H69.9882V20.2379H71.2622V21.3439C71.5142 20.9426 71.8502 20.6346 72.2702 20.4199C72.6995 20.2052 73.1708 20.0979 73.6842 20.0979C74.3282 20.0979 74.8975 20.2426 75.3922 20.5319C75.8868 20.8212 76.2555 21.2459 76.4982 21.8059C76.7128 21.2646 77.0675 20.8446 77.5622 20.5459C78.0568 20.2472 78.6075 20.0979 79.2142 20.0979ZM91.02 20.2379L86.4 31.5219H85.084L86.596 27.8259L83.502 20.2379H84.916L87.324 26.4539L89.704 20.2379H91.02Z" fill="#666666"/>
<path d="M105.225 56.8196H111" stroke="#666666"/>
<path d="M6.44252 56.8839C6.79718 56.9399 7.11918 57.0846 7.40852 57.3179C7.70718 57.5512 7.94052 57.8406 8.10852 58.1859C8.28585 58.5312 8.37452 58.8999 8.37452 59.2919C8.37452 59.7866 8.24852 60.2346 7.99652 60.6359C7.74452 61.0279 7.37585 61.3406 6.89052 61.5739C6.41452 61.7979 5.84985 61.9099 5.19652 61.9099H1.55652V52.1519H5.05652C5.71918 52.1519 6.28385 52.2639 6.75052 52.4879C7.21718 52.7026 7.56718 52.9966 7.80052 53.3699C8.03385 53.7432 8.15052 54.1632 8.15052 54.6299C8.15052 55.2086 7.99185 55.6892 7.67452 56.0719C7.36652 56.4452 6.95585 56.7159 6.44252 56.8839ZM2.83052 56.3659H4.97252C5.56985 56.3659 6.03185 56.2259 6.35852 55.9459C6.68518 55.6659 6.84852 55.2786 6.84852 54.7839C6.84852 54.2892 6.68518 53.9019 6.35852 53.6219C6.03185 53.3419 5.56052 53.2019 4.94452 53.2019H2.83052V56.3659ZM5.08452 60.8599C5.71918 60.8599 6.21385 60.7106 6.56852 60.4119C6.92318 60.1132 7.10052 59.6979 7.10052 59.1659C7.10052 58.6246 6.91385 58.1999 6.54052 57.8919C6.16718 57.5746 5.66785 57.4159 5.04252 57.4159H2.83052V60.8599H5.08452ZM10.8005 52.9919C10.5578 52.9919 10.3525 52.9079 10.1845 52.7399C10.0165 52.5719 9.93245 52.3666 9.93245 52.1239C9.93245 51.8812 10.0165 51.6759 10.1845 51.5079C10.3525 51.3399 10.5578 51.2559 10.8005 51.2559C11.0338 51.2559 11.2298 51.3399 11.3885 51.5079C11.5565 51.6759 11.6405 51.8812 11.6405 52.1239C11.6405 52.3666 11.5565 52.5719 11.3885 52.7399C11.2298 52.9079 11.0338 52.9919 10.8005 52.9919ZM11.4165 54.2379V61.9099H10.1425V54.2379H11.4165ZM16.9338 62.0359C16.2151 62.0359 15.5618 61.8726 14.9738 61.5459C14.3951 61.2192 13.9378 60.7572 13.6018 60.1599C13.2751 59.5532 13.1118 58.8532 13.1118 58.0599C13.1118 57.2759 13.2798 56.5852 13.6158 55.9879C13.9611 55.3812 14.4278 54.9192 15.0158 54.6019C15.6038 54.2752 16.2618 54.1119 16.9898 54.1119C17.7178 54.1119 18.3758 54.2752 18.9638 54.6019C19.5518 54.9192 20.0138 55.3766 20.3498 55.9739C20.6951 56.5712 20.8678 57.2666 20.8678 58.0599C20.8678 58.8532 20.6904 59.5532 20.3358 60.1599C19.9904 60.7572 19.5191 61.2192 18.9218 61.5459C18.3244 61.8726 17.6618 62.0359 16.9338 62.0359ZM16.9338 60.9159C17.3911 60.9159 17.8204 60.8086 18.2218 60.5939C18.6231 60.3792 18.9451 60.0572 19.1878 59.6279C19.4398 59.1986 19.5658 58.6759 19.5658 58.0599C19.5658 57.4439 19.4444 56.9212 19.2018 56.4919C18.9591 56.0626 18.6418 55.7452 18.2498 55.5399C17.8578 55.3252 17.4331 55.2179 16.9758 55.2179C16.5091 55.2179 16.0798 55.3252 15.6878 55.5399C15.3051 55.7452 14.9971 56.0626 14.7638 56.4919C14.5304 56.9212 14.4138 57.4439 14.4138 58.0599C14.4138 58.6852 14.5258 59.2126 14.7498 59.6419C14.9831 60.0712 15.2911 60.3932 15.6738 60.6079C16.0564 60.8132 16.4764 60.9159 16.9338 60.9159ZM22.0668 58.0599C22.0668 57.2666 22.2255 56.5759 22.5428 55.9879C22.8602 55.3906 23.2988 54.9286 23.8588 54.6019C24.4282 54.2752 25.0768 54.1119 25.8048 54.1119C26.7475 54.1119 27.5222 54.3406 28.1288 54.7979C28.7448 55.2552 29.1508 55.8899 29.3468 56.7019H27.9748C27.8442 56.2352 27.5875 55.8666 27.2048 55.5959C26.8315 55.3252 26.3648 55.1899 25.8048 55.1899C25.0768 55.1899 24.4888 55.4419 24.0408 55.9459C23.5928 56.4406 23.3688 57.1452 23.3688 58.0599C23.3688 58.9839 23.5928 59.6979 24.0408 60.2019C24.4888 60.7059 25.0768 60.9579 25.8048 60.9579C26.3648 60.9579 26.8315 60.8272 27.2048 60.5659C27.5782 60.3046 27.8348 59.9312 27.9748 59.4459H29.3468C29.1415 60.2299 28.7308 60.8599 28.1148 61.3359C27.4988 61.8026 26.7288 62.0359 25.8048 62.0359C25.0768 62.0359 24.4282 61.8726 23.8588 61.5459C23.2988 61.2192 22.8602 60.7572 22.5428 60.1599C22.2255 59.5626 22.0668 58.8626 22.0668 58.0599ZM34.8548 54.0979C35.4334 54.0979 35.9561 54.2239 36.4228 54.4759C36.8894 54.7186 37.2534 55.0872 37.5148 55.5819C37.7854 56.0766 37.9208 56.6786 37.9208 57.3879V61.9099H36.6608V57.5699C36.6608 56.8046 36.4694 56.2212 36.0868 55.8199C35.7041 55.4092 35.1814 55.2039 34.5188 55.2039C33.8468 55.2039 33.3101 55.4139 32.9088 55.8339C32.5168 56.2539 32.3208 56.8652 32.3208 57.6679V61.9099H31.0468V51.5499H32.3208V55.3299C32.5728 54.9379 32.9181 54.6346 33.3568 54.4199C33.8048 54.2052 34.3041 54.0979 34.8548 54.0979ZM47.0018 57.7799C47.0018 58.0226 46.9878 58.2792 46.9598 58.5499H40.8278C40.8745 59.3059 41.1312 59.8986 41.5978 60.3279C42.0738 60.7479 42.6478 60.9579 43.3198 60.9579C43.8705 60.9579 44.3278 60.8319 44.6918 60.5799C45.0652 60.3186 45.3265 59.9732 45.4758 59.5439H46.8478C46.6425 60.2812 46.2318 60.8832 45.6158 61.3499C44.9998 61.8072 44.2345 62.0359 43.3198 62.0359C42.5918 62.0359 41.9385 61.8726 41.3598 61.5459C40.7905 61.2192 40.3425 60.7572 40.0158 60.1599C39.6892 59.5532 39.5258 58.8532 39.5258 58.0599C39.5258 57.2666 39.6845 56.5712 40.0018 55.9739C40.3192 55.3766 40.7625 54.9192 41.3318 54.6019C41.9105 54.2752 42.5732 54.1119 43.3198 54.1119C44.0478 54.1119 44.6918 54.2706 45.2518 54.5879C45.8118 54.9052 46.2412 55.3439 46.5398 55.9039C46.8478 56.4546 47.0018 57.0799 47.0018 57.7799ZM45.6858 57.5139C45.6858 57.0286 45.5785 56.6132 45.3638 56.2679C45.1492 55.9132 44.8552 55.6472 44.4818 55.4699C44.1178 55.2832 43.7118 55.1899 43.2638 55.1899C42.6198 55.1899 42.0692 55.3952 41.6118 55.8059C41.1638 56.2166 40.9072 56.7859 40.8418 57.5139H45.6858ZM57.9095 54.0979C58.5068 54.0979 59.0388 54.2239 59.5055 54.4759C59.9721 54.7186 60.3408 55.0872 60.6115 55.5819C60.8821 56.0766 61.0175 56.6786 61.0175 57.3879V61.9099H59.7575V57.5699C59.7575 56.8046 59.5661 56.2212 59.1835 55.8199C58.8101 55.4092 58.3015 55.2039 57.6575 55.2039C56.9948 55.2039 56.4675 55.4186 56.0755 55.8479C55.6835 56.2679 55.4875 56.8792 55.4875 57.6819V61.9099H54.2275V57.5699C54.2275 56.8046 54.0361 56.2212 53.6535 55.8199C53.2801 55.4092 52.7715 55.2039 52.1275 55.2039C51.4648 55.2039 50.9375 55.4186 50.5455 55.8479C50.1535 56.2679 49.9575 56.8792 49.9575 57.6819V61.9099H48.6835V54.2379H49.9575V55.3439C50.2095 54.9426 50.5455 54.6346 50.9655 54.4199C51.3948 54.2052 51.8661 54.0979 52.3795 54.0979C53.0235 54.0979 53.5928 54.2426 54.0875 54.5319C54.5821 54.8212 54.9508 55.2459 55.1935 55.8059C55.4081 55.2646 55.7628 54.8446 56.2575 54.5459C56.7521 54.2472 57.3028 54.0979 57.9095 54.0979ZM63.7653 52.9919C63.5226 52.9919 63.3173 52.9079 63.1493 52.7399C62.9813 52.5719 62.8973 52.3666 62.8973 52.1239C62.8973 51.8812 62.9813 51.6759 63.1493 51.5079C63.3173 51.3399 63.5226 51.2559 63.7653 51.2559C63.9986 51.2559 64.1946 51.3399 64.3533 51.5079C64.5213 51.6759 64.6053 51.8812 64.6053 52.1239C64.6053 52.3666 64.5213 52.5719 64.3533 52.7399C64.1946 52.9079 63.9986 52.9919 63.7653 52.9919ZM64.3813 54.2379V61.9099H63.1073V54.2379H64.3813ZM69.2686 62.0359C68.6806 62.0359 68.1533 61.9379 67.6866 61.7419C67.2199 61.5366 66.8513 61.2566 66.5806 60.9019C66.3099 60.5379 66.1606 60.1226 66.1326 59.6559H67.4486C67.4859 60.0386 67.6633 60.3512 67.9806 60.5939C68.3073 60.8366 68.7319 60.9579 69.2546 60.9579C69.7399 60.9579 70.1226 60.8506 70.4026 60.6359C70.6826 60.4212 70.8226 60.1506 70.8226 59.8239C70.8226 59.4879 70.6733 59.2406 70.3746 59.0819C70.0759 58.9139 69.6139 58.7506 68.9886 58.5919C68.4193 58.4426 67.9526 58.2932 67.5886 58.1439C67.2339 57.9852 66.9259 57.7566 66.6646 57.4579C66.4126 57.1499 66.2866 56.7486 66.2866 56.2539C66.2866 55.8619 66.4033 55.5026 66.6366 55.1759C66.8699 54.8492 67.2013 54.5926 67.6306 54.4059C68.0599 54.2099 68.5499 54.1119 69.1006 54.1119C69.9499 54.1119 70.6359 54.3266 71.1586 54.7559C71.6813 55.1852 71.9613 55.7732 71.9986 56.5199H70.7246C70.6966 56.1186 70.5333 55.7966 70.2346 55.5539C69.9453 55.3112 69.5533 55.1899 69.0586 55.1899C68.6013 55.1899 68.2373 55.2879 67.9666 55.4839C67.6959 55.6799 67.5606 55.9366 67.5606 56.2539C67.5606 56.5059 67.6399 56.7159 67.7986 56.8839C67.9666 57.0426 68.1719 57.1732 68.4146 57.2759C68.6666 57.3692 69.0119 57.4766 69.4506 57.5979C70.0013 57.7472 70.4493 57.8966 70.7946 58.0459C71.1399 58.1859 71.4339 58.4006 71.6766 58.6899C71.9286 58.9792 72.0593 59.3572 72.0686 59.8239C72.0686 60.2439 71.9519 60.6219 71.7186 60.9579C71.4853 61.2939 71.1539 61.5599 70.7246 61.7559C70.3046 61.9426 69.8193 62.0359 69.2686 62.0359ZM75.4211 55.2879V59.8099C75.4211 60.1832 75.5004 60.4492 75.6591 60.6079C75.8177 60.7572 76.0931 60.8319 76.4851 60.8319H77.4231V61.9099H76.2751C75.5657 61.9099 75.0337 61.7466 74.6791 61.4199C74.3244 61.0932 74.1471 60.5566 74.1471 59.8099V55.2879H73.1531V54.2379H74.1471V52.3059H75.4211V54.2379H77.4231V55.2879H75.4211ZM80.2407 55.4839C80.4647 55.0452 80.782 54.7046 81.1927 54.4619C81.6127 54.2192 82.1213 54.0979 82.7187 54.0979V55.4139H82.3827C80.9547 55.4139 80.2407 56.1886 80.2407 57.7379V61.9099H78.9667V54.2379H80.2407V55.4839ZM90.7973 54.2379L86.1773 65.5219H84.8613L86.3733 61.8259L83.2793 54.2379H84.6933L87.1013 60.4539L89.4813 54.2379H90.7973Z" fill="#666666"/>
<path d="M105.225 90.8196H111" stroke="#666666"/>
<path d="M12.9047 86.2219V95.9099H11.6307V88.6859L8.41071 95.9099H7.51471L4.28071 88.6719V95.9099H3.00671V86.2219H4.37871L7.96271 94.2299L11.5467 86.2219H12.9047ZM15.7233 86.9919C15.4806 86.9919 15.2753 86.9079 15.1073 86.7399C14.9393 86.5719 14.8553 86.3666 14.8553 86.1239C14.8553 85.8812 14.9393 85.6759 15.1073 85.5079C15.2753 85.3399 15.4806 85.2559 15.7233 85.2559C15.9566 85.2559 16.1526 85.3399 16.3113 85.5079C16.4793 85.6759 16.5633 85.8812 16.5633 86.1239C16.5633 86.3666 16.4793 86.5719 16.3113 86.7399C16.1526 86.9079 15.9566 86.9919 15.7233 86.9919ZM16.3393 88.2379V95.9099H15.0653V88.2379H16.3393ZM18.0346 92.0599C18.0346 91.2666 18.1933 90.5759 18.5106 89.9879C18.828 89.3906 19.2666 88.9286 19.8266 88.6019C20.396 88.2752 21.0446 88.1119 21.7726 88.1119C22.7153 88.1119 23.49 88.3406 24.0966 88.7979C24.7126 89.2552 25.1186 89.8899 25.3146 90.7019H23.9426C23.812 90.2352 23.5553 89.8666 23.1726 89.5959C22.7993 89.3252 22.3326 89.1899 21.7726 89.1899C21.0446 89.1899 20.4566 89.4419 20.0086 89.9459C19.5606 90.4406 19.3366 91.1452 19.3366 92.0599C19.3366 92.9839 19.5606 93.6979 20.0086 94.2019C20.4566 94.7059 21.0446 94.9579 21.7726 94.9579C22.3326 94.9579 22.7993 94.8272 23.1726 94.5659C23.546 94.3046 23.8026 93.9312 23.9426 93.4459H25.3146C25.1093 94.2299 24.6986 94.8599 24.0826 95.3359C23.4666 95.8026 22.6966 96.0359 21.7726 96.0359C21.0446 96.0359 20.396 95.8726 19.8266 95.5459C19.2666 95.2192 18.828 94.7572 18.5106 94.1599C18.1933 93.5626 18.0346 92.8626 18.0346 92.0599ZM28.2885 89.4839C28.5125 89.0452 28.8299 88.7046 29.2405 88.4619C29.6605 88.2192 30.1692 88.0979 30.7665 88.0979V89.4139H30.4305C29.0025 89.4139 28.2885 90.1886 28.2885 91.7379V95.9099H27.0145V88.2379H28.2885V89.4839ZM35.5832 96.0359C34.8645 96.0359 34.2112 95.8726 33.6232 95.5459C33.0445 95.2192 32.5872 94.7572 32.2512 94.1599C31.9245 93.5532 31.7612 92.8532 31.7612 92.0599C31.7612 91.2759 31.9292 90.5852 32.2652 89.9879C32.6105 89.3812 33.0772 88.9192 33.6652 88.6019C34.2532 88.2752 34.9112 88.1119 35.6392 88.1119C36.3672 88.1119 37.0252 88.2752 37.6132 88.6019C38.2012 88.9192 38.6632 89.3766 38.9992 89.9739C39.3445 90.5712 39.5172 91.2666 39.5172 92.0599C39.5172 92.8532 39.3398 93.5532 38.9852 94.1599C38.6398 94.7572 38.1685 95.2192 37.5712 95.5459C36.9738 95.8726 36.3112 96.0359 35.5832 96.0359ZM35.5832 94.9159C36.0405 94.9159 36.4698 94.8086 36.8712 94.5939C37.2725 94.3792 37.5945 94.0572 37.8372 93.6279C38.0892 93.1986 38.2152 92.6759 38.2152 92.0599C38.2152 91.4439 38.0938 90.9212 37.8512 90.4919C37.6085 90.0626 37.2912 89.7452 36.8992 89.5399C36.5072 89.3252 36.0825 89.2179 35.6252 89.2179C35.1585 89.2179 34.7292 89.3252 34.3372 89.5399C33.9545 89.7452 33.6465 90.0626 33.4132 90.4919C33.1798 90.9212 33.0632 91.4439 33.0632 92.0599C33.0632 92.6852 33.1752 93.2126 33.3992 93.6419C33.6325 94.0712 33.9405 94.3932 34.3232 94.6079C34.7058 94.8132 35.1258 94.9159 35.5832 94.9159ZM42.4663 89.6659C42.7276 89.2086 43.1103 88.8352 43.6143 88.5459C44.1183 88.2566 44.6923 88.1119 45.3363 88.1119C46.0269 88.1119 46.6476 88.2752 47.1983 88.6019C47.7489 88.9286 48.1829 89.3906 48.5003 89.9879C48.8176 90.5759 48.9763 91.2619 48.9763 92.0459C48.9763 92.8206 48.8176 93.5112 48.5003 94.1179C48.1829 94.7246 47.7443 95.1959 47.1843 95.5319C46.6336 95.8679 46.0176 96.0359 45.3363 96.0359C44.6736 96.0359 44.0903 95.8912 43.5863 95.6019C43.0916 95.3126 42.7183 94.9439 42.4663 94.4959V95.9099H41.1923V85.5499H42.4663V89.6659ZM47.6743 92.0459C47.6743 91.4672 47.5576 90.9632 47.3243 90.5339C47.0909 90.1046 46.7736 89.7779 46.3723 89.5539C45.9803 89.3299 45.5463 89.2179 45.0703 89.2179C44.6036 89.2179 44.1696 89.3346 43.7683 89.5679C43.3763 89.7919 43.0589 90.1232 42.8163 90.5619C42.5829 90.9912 42.4663 91.4906 42.4663 92.0599C42.4663 92.6386 42.5829 93.1472 42.8163 93.5859C43.0589 94.0152 43.3763 94.3466 43.7683 94.5799C44.1696 94.8039 44.6036 94.9159 45.0703 94.9159C45.5463 94.9159 45.9803 94.8039 46.3723 94.5799C46.7736 94.3466 47.0909 94.0152 47.3243 93.5859C47.5576 93.1472 47.6743 92.6339 47.6743 92.0459ZM51.3112 86.9919C51.0685 86.9919 50.8632 86.9079 50.6952 86.7399C50.5272 86.5719 50.4432 86.3666 50.4432 86.1239C50.4432 85.8812 50.5272 85.6759 50.6952 85.5079C50.8632 85.3399 51.0685 85.2559 51.3112 85.2559C51.5445 85.2559 51.7405 85.3399 51.8992 85.5079C52.0672 85.6759 52.1512 85.8812 52.1512 86.1239C52.1512 86.3666 52.0672 86.5719 51.8992 86.7399C51.7405 86.9079 51.5445 86.9919 51.3112 86.9919ZM51.9272 88.2379V95.9099H50.6532V88.2379H51.9272ZM57.4445 96.0359C56.7258 96.0359 56.0725 95.8726 55.4845 95.5459C54.9058 95.2192 54.4485 94.7572 54.1125 94.1599C53.7858 93.5532 53.6225 92.8532 53.6225 92.0599C53.6225 91.2759 53.7905 90.5852 54.1265 89.9879C54.4718 89.3812 54.9385 88.9192 55.5265 88.6019C56.1145 88.2752 56.7725 88.1119 57.5005 88.1119C58.2285 88.1119 58.8865 88.2752 59.4745 88.6019C60.0625 88.9192 60.5245 89.3766 60.8605 89.9739C61.2058 90.5712 61.3785 91.2666 61.3785 92.0599C61.3785 92.8532 61.2012 93.5532 60.8465 94.1599C60.5012 94.7572 60.0298 95.2192 59.4325 95.5459C58.8352 95.8726 58.1725 96.0359 57.4445 96.0359ZM57.4445 94.9159C57.9018 94.9159 58.3312 94.8086 58.7325 94.5939C59.1338 94.3792 59.4558 94.0572 59.6985 93.6279C59.9505 93.1986 60.0765 92.6759 60.0765 92.0599C60.0765 91.4439 59.9552 90.9212 59.7125 90.4919C59.4698 90.0626 59.1525 89.7452 58.7605 89.5399C58.3685 89.3252 57.9438 89.2179 57.4865 89.2179C57.0198 89.2179 56.5905 89.3252 56.1985 89.5399C55.8158 89.7452 55.5078 90.0626 55.2745 90.4919C55.0412 90.9212 54.9245 91.4439 54.9245 92.0599C54.9245 92.6852 55.0365 93.2126 55.2605 93.6419C55.4938 94.0712 55.8018 94.3932 56.1845 94.6079C56.5672 94.8132 56.9872 94.9159 57.4445 94.9159ZM64.3276 85.5499V95.9099H63.0536V85.5499H64.3276ZM69.8449 96.0359C69.1262 96.0359 68.4729 95.8726 67.8849 95.5459C67.3062 95.2192 66.8489 94.7572 66.5129 94.1599C66.1862 93.5532 66.0229 92.8532 66.0229 92.0599C66.0229 91.2759 66.1909 90.5852 66.5269 89.9879C66.8722 89.3812 67.3389 88.9192 67.9269 88.6019C68.5149 88.2752 69.1729 88.1119 69.9009 88.1119C70.6289 88.1119 71.2869 88.2752 71.8749 88.6019C72.4629 88.9192 72.9249 89.3766 73.2609 89.9739C73.6062 90.5712 73.7789 91.2666 73.7789 92.0599C73.7789 92.8532 73.6016 93.5532 73.2469 94.1599C72.9016 94.7572 72.4302 95.2192 71.8329 95.5459C71.2356 95.8726 70.5729 96.0359 69.8449 96.0359ZM69.8449 94.9159C70.3022 94.9159 70.7316 94.8086 71.1329 94.5939C71.5342 94.3792 71.8562 94.0572 72.0989 93.6279C72.3509 93.1986 72.4769 92.6759 72.4769 92.0599C72.4769 91.4439 72.3556 90.9212 72.1129 90.4919C71.8702 90.0626 71.5529 89.7452 71.1609 89.5399C70.7689 89.3252 70.3442 89.2179 69.8869 89.2179C69.4202 89.2179 68.9909 89.3252 68.5989 89.5399C68.2162 89.7452 67.9082 90.0626 67.6749 90.4919C67.4416 90.9212 67.3249 91.4439 67.3249 92.0599C67.3249 92.6852 67.4369 93.2126 67.6609 93.6419C67.8942 94.0712 68.2022 94.3932 68.5849 94.6079C68.9676 94.8132 69.3876 94.9159 69.8449 94.9159ZM78.618 88.1119C79.2806 88.1119 79.8593 88.2566 80.354 88.5459C80.858 88.8352 81.2313 89.1992 81.474 89.6379V88.2379H82.762V96.0779C82.762 96.7779 82.6126 97.3986 82.314 97.9399C82.0153 98.4906 81.586 98.9199 81.026 99.2279C80.4753 99.5359 79.8313 99.6899 79.094 99.6899C78.086 99.6899 77.246 99.4519 76.574 98.9759C75.902 98.4999 75.5053 97.8512 75.384 97.0299H76.644C76.784 97.4966 77.0733 97.8699 77.512 98.1499C77.9506 98.4392 78.478 98.5839 79.094 98.5839C79.794 98.5839 80.3633 98.3646 80.802 97.9259C81.25 97.4872 81.474 96.8712 81.474 96.0779V94.4679C81.222 94.9159 80.8486 95.2892 80.354 95.5879C79.8593 95.8866 79.2806 96.0359 78.618 96.0359C77.9366 96.0359 77.316 95.8679 76.756 95.5319C76.2053 95.1959 75.7713 94.7246 75.454 94.1179C75.1366 93.5112 74.978 92.8206 74.978 92.0459C74.978 91.2619 75.1366 90.5759 75.454 89.9879C75.7713 89.3906 76.2053 88.9286 76.756 88.6019C77.316 88.2752 77.9366 88.1119 78.618 88.1119ZM81.474 92.0599C81.474 91.4812 81.3573 90.9772 81.124 90.5479C80.8906 90.1186 80.5733 89.7919 80.172 89.5679C79.78 89.3346 79.346 89.2179 78.87 89.2179C78.394 89.2179 77.96 89.3299 77.568 89.5539C77.176 89.7779 76.8633 90.1046 76.63 90.5339C76.3966 90.9632 76.28 91.4672 76.28 92.0459C76.28 92.6339 76.3966 93.1472 76.63 93.5859C76.8633 94.0152 77.176 94.3466 77.568 94.5799C77.96 94.8039 78.394 94.9159 78.87 94.9159C79.346 94.9159 79.78 94.8039 80.172 94.5799C80.5733 94.3466 80.8906 94.0152 81.124 93.5859C81.3573 93.1472 81.474 92.6386 81.474 92.0599ZM91.5229 88.2379L86.9029 99.5219H85.5869L87.0989 95.8259L84.0049 88.2379H85.4189L87.8269 94.4539L90.2069 88.2379H91.5229Z" fill="#666666"/>
<path d="M105.225 125.23H111" stroke="#666666"/>
<mask id="path-24-inside-1_34_711" fill="white">
<path d="M28.2397 123.008C28.2397 123.82 27.9597 124.497 27.3997 125.038C26.849 125.57 26.0044 125.836 24.8657 125.836H22.9897V129.91H21.7157V120.152H24.8657C25.967 120.152 26.8024 120.418 27.3717 120.95C27.9504 121.482 28.2397 122.168 28.2397 123.008ZM24.8657 124.786C25.575 124.786 26.0977 124.632 26.4337 124.324C26.7697 124.016 26.9377 123.577 26.9377 123.008C26.9377 121.804 26.247 121.202 24.8657 121.202H22.9897V124.786H24.8657ZM29.3471 126.046C29.3471 125.262 29.5058 124.576 29.8231 123.988C30.1405 123.391 30.5745 122.929 31.1251 122.602C31.6851 122.275 32.3058 122.112 32.9871 122.112C33.6591 122.112 34.2425 122.257 34.7371 122.546C35.2318 122.835 35.6005 123.199 35.8431 123.638V122.238H37.1311V129.91H35.8431V128.482C35.5911 128.93 35.2131 129.303 34.7091 129.602C34.2145 129.891 33.6358 130.036 32.9731 130.036C32.2918 130.036 31.6758 129.868 31.1251 129.532C30.5745 129.196 30.1405 128.725 29.8231 128.118C29.5058 127.511 29.3471 126.821 29.3471 126.046ZM35.8431 126.06C35.8431 125.481 35.7265 124.977 35.4931 124.548C35.2598 124.119 34.9425 123.792 34.5411 123.568C34.1491 123.335 33.7151 123.218 33.2391 123.218C32.7631 123.218 32.3291 123.33 31.9371 123.554C31.5451 123.778 31.2325 124.105 30.9991 124.534C30.7658 124.963 30.6491 125.467 30.6491 126.046C30.6491 126.634 30.7658 127.147 30.9991 127.586C31.2325 128.015 31.5451 128.347 31.9371 128.58C32.3291 128.804 32.7631 128.916 33.2391 128.916C33.7151 128.916 34.1491 128.804 34.5411 128.58C34.9425 128.347 35.2598 128.015 35.4931 127.586C35.7265 127.147 35.8431 126.639 35.8431 126.06ZM40.8381 123.288V127.81C40.8381 128.183 40.9174 128.449 41.0761 128.608C41.2347 128.757 41.5101 128.832 41.9021 128.832H42.8401V129.91H41.6921C40.9827 129.91 40.4507 129.747 40.0961 129.42C39.7414 129.093 39.5641 128.557 39.5641 127.81V123.288H38.5701V122.238H39.5641V120.306H40.8381V122.238H42.8401V123.288H40.8381ZM48.1917 122.098C48.7703 122.098 49.293 122.224 49.7597 122.476C50.2263 122.719 50.5903 123.087 50.8517 123.582C51.1223 124.077 51.2577 124.679 51.2577 125.388V129.91H49.9977V125.57C49.9977 124.805 49.8063 124.221 49.4237 123.82C49.041 123.409 48.5183 123.204 47.8557 123.204C47.1837 123.204 46.647 123.414 46.2457 123.834C45.8537 124.254 45.6577 124.865 45.6577 125.668V129.91H44.3837V119.55H45.6577V123.33C45.9097 122.938 46.255 122.635 46.6937 122.42C47.1417 122.205 47.641 122.098 48.1917 122.098ZM56.6847 130.036C55.9661 130.036 55.3127 129.873 54.7247 129.546C54.1461 129.219 53.6887 128.757 53.3527 128.16C53.0261 127.553 52.8627 126.853 52.8627 126.06C52.8627 125.276 53.0307 124.585 53.3667 123.988C53.7121 123.381 54.1787 122.919 54.7667 122.602C55.3547 122.275 56.0127 122.112 56.7407 122.112C57.4687 122.112 58.1267 122.275 58.7147 122.602C59.3027 122.919 59.7647 123.377 60.1007 123.974C60.4461 124.571 60.6187 125.267 60.6187 126.06C60.6187 126.853 60.4414 127.553 60.0867 128.16C59.7414 128.757 59.2701 129.219 58.6727 129.546C58.0754 129.873 57.4127 130.036 56.6847 130.036ZM56.6847 128.916C57.1421 128.916 57.5714 128.809 57.9727 128.594C58.3741 128.379 58.6961 128.057 58.9387 127.628C59.1907 127.199 59.3167 126.676 59.3167 126.06C59.3167 125.444 59.1954 124.921 58.9527 124.492C58.7101 124.063 58.3927 123.745 58.0007 123.54C57.6087 123.325 57.1841 123.218 56.7267 123.218C56.2601 123.218 55.8307 123.325 55.4387 123.54C55.0561 123.745 54.7481 124.063 54.5147 124.492C54.2814 124.921 54.1647 125.444 54.1647 126.06C54.1647 126.685 54.2767 127.213 54.5007 127.642C54.7341 128.071 55.0421 128.393 55.4247 128.608C55.8074 128.813 56.2274 128.916 56.6847 128.916ZM63.5678 119.55V129.91H62.2938V119.55H63.5678ZM69.0851 130.036C68.3665 130.036 67.7131 129.873 67.1251 129.546C66.5465 129.219 66.0891 128.757 65.7531 128.16C65.4265 127.553 65.2631 126.853 65.2631 126.06C65.2631 125.276 65.4311 124.585 65.7671 123.988C66.1125 123.381 66.5791 122.919 67.1671 122.602C67.7551 122.275 68.4131 122.112 69.1411 122.112C69.8691 122.112 70.5271 122.275 71.1151 122.602C71.7031 122.919 72.1651 123.377 72.5011 123.974C72.8465 124.571 73.0191 125.267 73.0191 126.06C73.0191 126.853 72.8418 127.553 72.4871 128.16C72.1418 128.757 71.6705 129.219 71.0731 129.546C70.4758 129.873 69.8131 130.036 69.0851 130.036ZM69.0851 128.916C69.5425 128.916 69.9718 128.809 70.3731 128.594C70.7745 128.379 71.0965 128.057 71.3391 127.628C71.5911 127.199 71.7171 126.676 71.7171 126.06C71.7171 125.444 71.5958 124.921 71.3531 124.492C71.1105 124.063 70.7931 123.745 70.4011 123.54C70.0091 123.325 69.5845 123.218 69.1271 123.218C68.6605 123.218 68.2311 123.325 67.8391 123.54C67.4565 123.745 67.1485 124.063 66.9151 124.492C66.6818 124.921 66.5651 125.444 66.5651 126.06C66.5651 126.685 66.6771 127.213 66.9011 127.642C67.1345 128.071 67.4425 128.393 67.8251 128.608C68.2078 128.813 68.6278 128.916 69.0851 128.916ZM77.8582 122.112C78.5209 122.112 79.0995 122.257 79.5942 122.546C80.0982 122.835 80.4715 123.199 80.7142 123.638V122.238H82.0022V130.078C82.0022 130.778 81.8529 131.399 81.5542 131.94C81.2555 132.491 80.8262 132.92 80.2662 133.228C79.7155 133.536 79.0715 133.69 78.3342 133.69C77.3262 133.69 76.4862 133.452 75.8142 132.976C75.1422 132.5 74.7455 131.851 74.6242 131.03H75.8842C76.0242 131.497 76.3135 131.87 76.7522 132.15C77.1909 132.439 77.7182 132.584 78.3342 132.584C79.0342 132.584 79.6035 132.365 80.0422 131.926C80.4902 131.487 80.7142 130.871 80.7142 130.078V128.468C80.4622 128.916 80.0889 129.289 79.5942 129.588C79.0995 129.887 78.5209 130.036 77.8582 130.036C77.1769 130.036 76.5562 129.868 75.9962 129.532C75.4455 129.196 75.0115 128.725 74.6942 128.118C74.3769 127.511 74.2182 126.821 74.2182 126.046C74.2182 125.262 74.3769 124.576 74.6942 123.988C75.0115 123.391 75.4455 122.929 75.9962 122.602C76.5562 122.275 77.1769 122.112 77.8582 122.112ZM80.7142 126.06C80.7142 125.481 80.5975 124.977 80.3642 124.548C80.1309 124.119 79.8135 123.792 79.4122 123.568C79.0202 123.335 78.5862 123.218 78.1102 123.218C77.6342 123.218 77.2002 123.33 76.8082 123.554C76.4162 123.778 76.1035 124.105 75.8702 124.534C75.6369 124.963 75.5202 125.467 75.5202 126.046C75.5202 126.634 75.6369 127.147 75.8702 127.586C76.1035 128.015 76.4162 128.347 76.8082 128.58C77.2002 128.804 77.6342 128.916 78.1102 128.916C78.5862 128.916 79.0202 128.804 79.4122 128.58C79.8135 128.347 80.1309 128.015 80.3642 127.586C80.5975 127.147 80.7142 126.639 80.7142 126.06ZM90.7631 122.238L86.1431 133.522H84.8271L86.3391 129.826L83.2451 122.238H84.6591L87.0671 128.454L89.4471 122.238H90.7631Z"/>
</mask>
<path d="M28.2397 123.008C28.2397 123.82 27.9597 124.497 27.3997 125.038C26.849 125.57 26.0044 125.836 24.8657 125.836H22.9897V129.91H21.7157V120.152H24.8657C25.967 120.152 26.8024 120.418 27.3717 120.95C27.9504 121.482 28.2397 122.168 28.2397 123.008ZM24.8657 124.786C25.575 124.786 26.0977 124.632 26.4337 124.324C26.7697 124.016 26.9377 123.577 26.9377 123.008C26.9377 121.804 26.247 121.202 24.8657 121.202H22.9897V124.786H24.8657ZM29.3471 126.046C29.3471 125.262 29.5058 124.576 29.8231 123.988C30.1405 123.391 30.5745 122.929 31.1251 122.602C31.6851 122.275 32.3058 122.112 32.9871 122.112C33.6591 122.112 34.2425 122.257 34.7371 122.546C35.2318 122.835 35.6005 123.199 35.8431 123.638V122.238H37.1311V129.91H35.8431V128.482C35.5911 128.93 35.2131 129.303 34.7091 129.602C34.2145 129.891 33.6358 130.036 32.9731 130.036C32.2918 130.036 31.6758 129.868 31.1251 129.532C30.5745 129.196 30.1405 128.725 29.8231 128.118C29.5058 127.511 29.3471 126.821 29.3471 126.046ZM35.8431 126.06C35.8431 125.481 35.7265 124.977 35.4931 124.548C35.2598 124.119 34.9425 123.792 34.5411 123.568C34.1491 123.335 33.7151 123.218 33.2391 123.218C32.7631 123.218 32.3291 123.33 31.9371 123.554C31.5451 123.778 31.2325 124.105 30.9991 124.534C30.7658 124.963 30.6491 125.467 30.6491 126.046C30.6491 126.634 30.7658 127.147 30.9991 127.586C31.2325 128.015 31.5451 128.347 31.9371 128.58C32.3291 128.804 32.7631 128.916 33.2391 128.916C33.7151 128.916 34.1491 128.804 34.5411 128.58C34.9425 128.347 35.2598 128.015 35.4931 127.586C35.7265 127.147 35.8431 126.639 35.8431 126.06ZM40.8381 123.288V127.81C40.8381 128.183 40.9174 128.449 41.0761 128.608C41.2347 128.757 41.5101 128.832 41.9021 128.832H42.8401V129.91H41.6921C40.9827 129.91 40.4507 129.747 40.0961 129.42C39.7414 129.093 39.5641 128.557 39.5641 127.81V123.288H38.5701V122.238H39.5641V120.306H40.8381V122.238H42.8401V123.288H40.8381ZM48.1917 122.098C48.7703 122.098 49.293 122.224 49.7597 122.476C50.2263 122.719 50.5903 123.087 50.8517 123.582C51.1223 124.077 51.2577 124.679 51.2577 125.388V129.91H49.9977V125.57C49.9977 124.805 49.8063 124.221 49.4237 123.82C49.041 123.409 48.5183 123.204 47.8557 123.204C47.1837 123.204 46.647 123.414 46.2457 123.834C45.8537 124.254 45.6577 124.865 45.6577 125.668V129.91H44.3837V119.55H45.6577V123.33C45.9097 122.938 46.255 122.635 46.6937 122.42C47.1417 122.205 47.641 122.098 48.1917 122.098ZM56.6847 130.036C55.9661 130.036 55.3127 129.873 54.7247 129.546C54.1461 129.219 53.6887 128.757 53.3527 128.16C53.0261 127.553 52.8627 126.853 52.8627 126.06C52.8627 125.276 53.0307 124.585 53.3667 123.988C53.7121 123.381 54.1787 122.919 54.7667 122.602C55.3547 122.275 56.0127 122.112 56.7407 122.112C57.4687 122.112 58.1267 122.275 58.7147 122.602C59.3027 122.919 59.7647 123.377 60.1007 123.974C60.4461 124.571 60.6187 125.267 60.6187 126.06C60.6187 126.853 60.4414 127.553 60.0867 128.16C59.7414 128.757 59.2701 129.219 58.6727 129.546C58.0754 129.873 57.4127 130.036 56.6847 130.036ZM56.6847 128.916C57.1421 128.916 57.5714 128.809 57.9727 128.594C58.3741 128.379 58.6961 128.057 58.9387 127.628C59.1907 127.199 59.3167 126.676 59.3167 126.06C59.3167 125.444 59.1954 124.921 58.9527 124.492C58.7101 124.063 58.3927 123.745 58.0007 123.54C57.6087 123.325 57.1841 123.218 56.7267 123.218C56.2601 123.218 55.8307 123.325 55.4387 123.54C55.0561 123.745 54.7481 124.063 54.5147 124.492C54.2814 124.921 54.1647 125.444 54.1647 126.06C54.1647 126.685 54.2767 127.213 54.5007 127.642C54.7341 128.071 55.0421 128.393 55.4247 128.608C55.8074 128.813 56.2274 128.916 56.6847 128.916ZM63.5678 119.55V129.91H62.2938V119.55H63.5678ZM69.0851 130.036C68.3665 130.036 67.7131 129.873 67.1251 129.546C66.5465 129.219 66.0891 128.757 65.7531 128.16C65.4265 127.553 65.2631 126.853 65.2631 126.06C65.2631 125.276 65.4311 124.585 65.7671 123.988C66.1125 123.381 66.5791 122.919 67.1671 122.602C67.7551 122.275 68.4131 122.112 69.1411 122.112C69.8691 122.112 70.5271 122.275 71.1151 122.602C71.7031 122.919 72.1651 123.377 72.5011 123.974C72.8465 124.571 73.0191 125.267 73.0191 126.06C73.0191 126.853 72.8418 127.553 72.4871 128.16C72.1418 128.757 71.6705 129.219 71.0731 129.546C70.4758 129.873 69.8131 130.036 69.0851 130.036ZM69.0851 128.916C69.5425 128.916 69.9718 128.809 70.3731 128.594C70.7745 128.379 71.0965 128.057 71.3391 127.628C71.5911 127.199 71.7171 126.676 71.7171 126.06C71.7171 125.444 71.5958 124.921 71.3531 124.492C71.1105 124.063 70.7931 123.745 70.4011 123.54C70.0091 123.325 69.5845 123.218 69.1271 123.218C68.6605 123.218 68.2311 123.325 67.8391 123.54C67.4565 123.745 67.1485 124.063 66.9151 124.492C66.6818 124.921 66.5651 125.444 66.5651 126.06C66.5651 126.685 66.6771 127.213 66.9011 127.642C67.1345 128.071 67.4425 128.393 67.8251 128.608C68.2078 128.813 68.6278 128.916 69.0851 128.916ZM77.8582 122.112C78.5209 122.112 79.0995 122.257 79.5942 122.546C80.0982 122.835 80.4715 123.199 80.7142 123.638V122.238H82.0022V130.078C82.0022 130.778 81.8529 131.399 81.5542 131.94C81.2555 132.491 80.8262 132.92 80.2662 133.228C79.7155 133.536 79.0715 133.69 78.3342 133.69C77.3262 133.69 76.4862 133.452 75.8142 132.976C75.1422 132.5 74.7455 131.851 74.6242 131.03H75.8842C76.0242 131.497 76.3135 131.87 76.7522 132.15C77.1909 132.439 77.7182 132.584 78.3342 132.584C79.0342 132.584 79.6035 132.365 80.0422 131.926C80.4902 131.487 80.7142 130.871 80.7142 130.078V128.468C80.4622 128.916 80.0889 129.289 79.5942 129.588C79.0995 129.887 78.5209 130.036 77.8582 130.036C77.1769 130.036 76.5562 129.868 75.9962 129.532C75.4455 129.196 75.0115 128.725 74.6942 128.118C74.3769 127.511 74.2182 126.821 74.2182 126.046C74.2182 125.262 74.3769 124.576 74.6942 123.988C75.0115 123.391 75.4455 122.929 75.9962 122.602C76.5562 122.275 77.1769 122.112 77.8582 122.112ZM80.7142 126.06C80.7142 125.481 80.5975 124.977 80.3642 124.548C80.1309 124.119 79.8135 123.792 79.4122 123.568C79.0202 123.335 78.5862 123.218 78.1102 123.218C77.6342 123.218 77.2002 123.33 76.8082 123.554C76.4162 123.778 76.1035 124.105 75.8702 124.534C75.6369 124.963 75.5202 125.467 75.5202 126.046C75.5202 126.634 75.6369 127.147 75.8702 127.586C76.1035 128.015 76.4162 128.347 76.8082 128.58C77.2002 128.804 77.6342 128.916 78.1102 128.916C78.5862 128.916 79.0202 128.804 79.4122 128.58C79.8135 128.347 80.1309 128.015 80.3642 127.586C80.5975 127.147 80.7142 126.639 80.7142 126.06ZM90.7631 122.238L86.1431 133.522H84.8271L86.3391 129.826L83.2451 122.238H84.6591L87.0671 128.454L89.4471 122.238H90.7631Z" fill="#666666"/>
<path d="M27.3997 125.038L28.0945 125.757L28.0947 125.757L27.3997 125.038ZM22.9897 125.836V124.836H21.9897V125.836H22.9897ZM22.9897 129.91V130.91H23.9897V129.91H22.9897ZM21.7157 129.91H20.7157V130.91H21.7157V129.91ZM21.7157 120.152V119.152H20.7157V120.152H21.7157ZM27.3717 120.95L26.6889 121.681L26.6949 121.686L27.3717 120.95ZM26.4337 124.324L27.1094 125.061V125.061L26.4337 124.324ZM22.9897 121.202V120.202H21.9897V121.202H22.9897ZM22.9897 124.786H21.9897V125.786H22.9897V124.786ZM27.2397 123.008C27.2397 123.562 27.0607 123.975 26.7047 124.319L28.0947 125.757C28.8587 125.018 29.2397 124.078 29.2397 123.008H27.2397ZM26.7049 124.319C26.4143 124.599 25.8697 124.836 24.8657 124.836V126.836C26.139 126.836 27.2838 126.54 28.0945 125.757L26.7049 124.319ZM24.8657 124.836H22.9897V126.836H24.8657V124.836ZM21.9897 125.836V129.91H23.9897V125.836H21.9897ZM22.9897 128.91H21.7157V130.91H22.9897V128.91ZM22.7157 129.91V120.152H20.7157V129.91H22.7157ZM21.7157 121.152H24.8657V119.152H21.7157V121.152ZM24.8657 121.152C25.8184 121.152 26.3694 121.382 26.689 121.681L28.0544 120.219C27.2353 119.454 26.1156 119.152 24.8657 119.152V121.152ZM26.6949 121.686C27.0522 122.015 27.2397 122.426 27.2397 123.008H29.2397C29.2397 121.91 28.8485 120.949 28.0485 120.214L26.6949 121.686ZM24.8657 125.786C25.6915 125.786 26.5097 125.611 27.1094 125.061L25.758 123.587C25.6857 123.653 25.4586 123.786 24.8657 123.786V125.786ZM27.1094 125.061C27.7014 124.518 27.9377 123.783 27.9377 123.008H25.9377C25.9377 123.372 25.838 123.513 25.758 123.587L27.1094 125.061ZM27.9377 123.008C27.9377 122.213 27.7034 121.446 27.0768 120.9C26.4764 120.376 25.6794 120.202 24.8657 120.202V122.202C25.4334 122.202 25.6724 122.329 25.7626 122.407C25.8266 122.463 25.9377 122.599 25.9377 123.008H27.9377ZM24.8657 120.202H22.9897V122.202H24.8657V120.202ZM21.9897 121.202V124.786H23.9897V121.202H21.9897ZM22.9897 125.786H24.8657V123.786H22.9897V125.786ZM29.8231 123.988L30.7032 124.463L30.7062 124.457L29.8231 123.988ZM31.1251 122.602L30.6212 121.738L30.6149 121.742L31.1251 122.602ZM34.7371 122.546L34.2322 123.409H34.2322L34.7371 122.546ZM35.8431 123.638L34.9681 124.122L36.8431 123.638H35.8431ZM35.8431 122.238V121.238H34.8431V122.238H35.8431ZM37.1311 122.238H38.1311V121.238H37.1311V122.238ZM37.1311 129.91V130.91H38.1311V129.91H37.1311ZM35.8431 129.91H34.8431V130.91H35.8431V129.91ZM35.8431 128.482H36.8431V124.664L34.9715 127.992L35.8431 128.482ZM34.7091 129.602L35.214 130.465L35.2189 130.462L34.7091 129.602ZM31.1251 129.532L30.6043 130.386L31.1251 129.532ZM29.8231 128.118L30.7092 127.654L29.8231 128.118ZM34.5411 123.568L34.0296 124.427L34.0416 124.434L34.0538 124.441L34.5411 123.568ZM31.9371 123.554L31.441 122.686L31.441 122.686L31.9371 123.554ZM30.9991 124.534L31.8777 125.011V125.011L30.9991 124.534ZM30.9991 127.586L30.1162 128.056L30.1205 128.063L30.9991 127.586ZM31.9371 128.58L31.4256 129.439L31.4333 129.444L31.441 129.448L31.9371 128.58ZM34.5411 128.58L35.0373 129.448L35.0437 129.444L34.5411 128.58ZM35.4931 127.586L36.3718 128.063L36.376 128.056L35.4931 127.586ZM30.3471 126.046C30.3471 125.399 30.4772 124.882 30.7031 124.463L28.9431 123.513C28.5344 124.27 28.3471 125.125 28.3471 126.046H30.3471ZM30.7062 124.457C30.9425 124.012 31.2515 123.69 31.6353 123.462L30.6149 121.742C29.8974 122.168 29.3384 122.769 28.94 123.519L30.7062 124.457ZM31.629 123.466C32.0281 123.233 32.4735 123.112 32.9871 123.112V121.112C32.1381 121.112 31.3421 121.318 30.6212 121.738L31.629 123.466ZM32.9871 123.112C33.5126 123.112 33.9154 123.224 34.2322 123.409L35.242 121.683C34.5695 121.289 33.8057 121.112 32.9871 121.112V123.112ZM34.2322 123.409C34.5943 123.621 34.8243 123.862 34.9681 124.122L36.7182 123.154C36.3766 122.536 35.8693 122.05 35.242 121.683L34.2322 123.409ZM36.8431 123.638V122.238H34.8431V123.638H36.8431ZM35.8431 123.238H37.1311V121.238H35.8431V123.238ZM36.1311 122.238V129.91H38.1311V122.238H36.1311ZM37.1311 128.91H35.8431V130.91H37.1311V128.91ZM36.8431 129.91V128.482H34.8431V129.91H36.8431ZM34.9715 127.992C34.817 128.266 34.5738 128.52 34.1993 128.742L35.2189 130.462C35.8524 130.087 36.3652 129.593 36.7147 128.972L34.9715 127.992ZM34.2042 128.739C33.8853 128.925 33.4865 129.036 32.9731 129.036V131.036C33.7851 131.036 34.5436 130.857 35.214 130.465L34.2042 128.739ZM32.9731 129.036C32.4648 129.036 32.0308 128.913 31.646 128.678L30.6043 130.386C31.3207 130.823 32.1188 131.036 32.9731 131.036V129.036ZM31.646 128.678C31.2598 128.443 30.9478 128.111 30.7092 127.654L28.937 128.581C29.3331 129.339 29.8891 129.949 30.6043 130.386L31.646 128.678ZM30.7092 127.654C30.4761 127.209 30.3471 126.681 30.3471 126.046H28.3471C28.3471 126.961 28.5355 127.814 28.937 128.581L30.7092 127.654ZM36.8431 126.06C36.8431 125.345 36.6982 124.671 36.3717 124.07L34.6145 125.025C34.7547 125.283 34.8431 125.617 34.8431 126.06H36.8431ZM36.3717 124.07C36.054 123.486 35.6056 123.017 35.0285 122.695L34.0538 124.441C34.2793 124.567 34.4655 124.751 34.6145 125.025L36.3717 124.07ZM35.0526 122.709C34.499 122.379 33.887 122.218 33.2391 122.218V124.218C33.5432 124.218 33.7992 124.29 34.0296 124.427L35.0526 122.709ZM33.2391 122.218C32.5989 122.218 31.9924 122.371 31.441 122.686L32.4333 124.422C32.6659 124.289 32.9273 124.218 33.2391 124.218V122.218ZM31.441 122.686C30.8744 123.009 30.435 123.478 30.1205 124.056L31.8777 125.011C32.0299 124.731 32.2158 124.546 32.4333 124.422L31.441 122.686ZM30.1205 124.056C29.794 124.657 29.6491 125.331 29.6491 126.046H31.6491C31.6491 125.603 31.7375 125.269 31.8777 125.011L30.1205 124.056ZM29.6491 126.046C29.6491 126.768 29.7931 127.448 30.1162 128.056L31.882 127.116C31.7385 126.847 31.6491 126.5 31.6491 126.046H29.6491ZM30.1205 128.063C30.4333 128.639 30.8681 129.107 31.4256 129.439L32.4486 127.721C32.2221 127.586 32.0316 127.391 31.8777 127.108L30.1205 128.063ZM31.441 129.448C31.9924 129.763 32.5989 129.916 33.2391 129.916V127.916C32.9273 127.916 32.6659 127.845 32.4333 127.712L31.441 129.448ZM33.2391 129.916C33.8793 129.916 34.4859 129.763 35.0373 129.448L34.045 127.712C33.8124 127.845 33.5509 127.916 33.2391 127.916V129.916ZM35.0437 129.444C35.612 129.114 36.0557 128.645 36.3717 128.063L34.6145 127.108C34.4639 127.386 34.2729 127.579 34.0385 127.715L35.0437 129.444ZM36.376 128.056C36.698 127.45 36.8431 126.775 36.8431 126.06H34.8431C34.8431 126.502 34.7549 126.844 34.6102 127.116L36.376 128.056ZM40.8381 123.288V122.288H39.8381V123.288H40.8381ZM41.0761 128.608L40.3689 129.315L40.3797 129.326L40.3907 129.336L41.0761 128.608ZM42.8401 128.832H43.8401V127.832H42.8401V128.832ZM42.8401 129.91V130.91H43.8401V129.91H42.8401ZM40.0961 129.42L39.4186 130.155L40.0961 129.42ZM39.5641 123.288H40.5641V122.288H39.5641V123.288ZM38.5701 123.288H37.5701V124.288H38.5701V123.288ZM38.5701 122.238V121.238H37.5701V122.238H38.5701ZM39.5641 122.238V123.238H40.5641V122.238H39.5641ZM39.5641 120.306V119.306H38.5641V120.306H39.5641ZM40.8381 120.306H41.8381V119.306H40.8381V120.306ZM40.8381 122.238H39.8381V123.238H40.8381V122.238ZM42.8401 122.238H43.8401V121.238H42.8401V122.238ZM42.8401 123.288V124.288H43.8401V123.288H42.8401ZM39.8381 123.288V127.81H41.8381V123.288H39.8381ZM39.8381 127.81C39.8381 128.282 39.931 128.877 40.3689 129.315L41.7832 127.901C41.8459 127.964 41.8591 128.015 41.8558 128.004C41.8542 127.998 41.8495 127.98 41.8453 127.947C41.8412 127.913 41.8381 127.868 41.8381 127.81H39.8381ZM40.3907 129.336C40.8356 129.755 41.4396 129.832 41.9021 129.832V127.832C41.764 127.832 41.6905 127.818 41.6633 127.811C41.6368 127.804 41.6899 127.812 41.7614 127.88L40.3907 129.336ZM41.9021 129.832H42.8401V127.832H41.9021V129.832ZM41.8401 128.832V129.91H43.8401V128.832H41.8401ZM42.8401 128.91H41.6921V130.91H42.8401V128.91ZM41.6921 128.91C41.1174 128.91 40.8729 128.776 40.7735 128.684L39.4186 130.155C40.0286 130.717 40.848 130.91 41.6921 130.91V128.91ZM40.7735 128.684C40.7142 128.63 40.5641 128.429 40.5641 127.81H38.5641C38.5641 128.685 38.7685 129.557 39.4186 130.155L40.7735 128.684ZM40.5641 127.81V123.288H38.5641V127.81H40.5641ZM39.5641 122.288H38.5701V124.288H39.5641V122.288ZM39.5701 123.288V122.238H37.5701V123.288H39.5701ZM38.5701 123.238H39.5641V121.238H38.5701V123.238ZM40.5641 122.238V120.306H38.5641V122.238H40.5641ZM39.5641 121.306H40.8381V119.306H39.5641V121.306ZM39.8381 120.306V122.238H41.8381V120.306H39.8381ZM40.8381 123.238H42.8401V121.238H40.8381V123.238ZM41.8401 122.238V123.288H43.8401V122.238H41.8401ZM42.8401 122.288H40.8381V124.288H42.8401V122.288ZM49.7597 122.476L49.2845 123.356L49.2914 123.36L49.2983 123.363L49.7597 122.476ZM50.8517 123.582L49.9675 124.049L49.9709 124.056L49.9744 124.062L50.8517 123.582ZM51.2577 129.91V130.91H52.2577V129.91H51.2577ZM49.9977 129.91H48.9977V130.91H49.9977V129.91ZM49.4237 123.82L48.692 124.502L48.6999 124.51L49.4237 123.82ZM46.2457 123.834L45.5226 123.143L45.5146 123.152L46.2457 123.834ZM45.6577 129.91V130.91H46.6577V129.91H45.6577ZM44.3837 129.91H43.3837V130.91H44.3837V129.91ZM44.3837 119.55V118.55H43.3837V119.55H44.3837ZM45.6577 119.55H46.6577V118.55H45.6577V119.55ZM45.6577 123.33H44.6577V126.735L46.4988 123.871L45.6577 123.33ZM46.6937 122.42L46.2615 121.518L46.2541 121.522L46.6937 122.42ZM48.1917 123.098C48.6199 123.098 48.9769 123.19 49.2845 123.356L50.2348 121.596C49.6091 121.258 48.9208 121.098 48.1917 121.098V123.098ZM49.2983 123.363C49.5729 123.506 49.7947 123.722 49.9675 124.049L51.7359 123.115C51.3859 122.452 50.8798 121.931 50.221 121.589L49.2983 123.363ZM49.9744 124.062C50.1464 124.376 50.2577 124.804 50.2577 125.388H52.2577C52.2577 124.553 52.0983 123.777 51.7289 123.102L49.9744 124.062ZM50.2577 125.388V129.91H52.2577V125.388H50.2577ZM51.2577 128.91H49.9977V130.91H51.2577V128.91ZM50.9977 129.91V125.57H48.9977V129.91H50.9977ZM50.9977 125.57C50.9977 124.647 50.7656 123.778 50.1474 123.13L48.6999 124.51C48.8471 124.664 48.9977 124.963 48.9977 125.57H50.9977ZM50.1553 123.138C49.5492 122.488 48.7413 122.204 47.8557 122.204V124.204C48.2954 124.204 48.5327 124.331 48.6921 124.502L50.1553 123.138ZM47.8557 122.204C46.9573 122.204 46.1427 122.494 45.5227 123.143L46.9687 124.525C47.1513 124.334 47.4101 124.204 47.8557 124.204V122.204ZM45.5146 123.152C44.8913 123.819 44.6577 124.713 44.6577 125.668H46.6577C46.6577 125.017 46.816 124.688 46.9767 124.516L45.5146 123.152ZM44.6577 125.668V129.91H46.6577V125.668H44.6577ZM45.6577 128.91H44.3837V130.91H45.6577V128.91ZM45.3837 129.91V119.55H43.3837V129.91H45.3837ZM44.3837 120.55H45.6577V118.55H44.3837V120.55ZM44.6577 119.55V123.33H46.6577V119.55H44.6577ZM46.4988 123.871C46.6473 123.64 46.8503 123.457 47.1332 123.318L46.2541 121.522C45.6597 121.813 45.1721 122.236 44.8165 122.789L46.4988 123.871ZM47.1258 123.322C47.4249 123.178 47.7742 123.098 48.1917 123.098V121.098C47.5078 121.098 46.8585 121.232 46.2615 121.518L47.1258 123.322ZM54.7247 129.546L54.2331 130.417L54.2391 130.42L54.7247 129.546ZM53.3527 128.16L52.4723 128.634L52.4766 128.642L52.4812 128.65L53.3527 128.16ZM53.3667 123.988L52.4977 123.493L52.4952 123.498L53.3667 123.988ZM54.7667 122.602L55.2417 123.482L55.2524 123.476L54.7667 122.602ZM58.7147 122.602L58.2291 123.476L58.2398 123.482L58.7147 122.602ZM60.1007 123.974L59.2291 124.464L59.235 124.474L60.1007 123.974ZM60.0867 128.16L59.2234 127.655L59.221 127.659L60.0867 128.16ZM58.6727 129.546L59.1526 130.423L58.6727 129.546ZM58.9387 127.628L58.0763 127.122L58.0722 127.129L58.0682 127.136L58.9387 127.628ZM58.0007 123.54L57.5204 124.417L57.5285 124.421L57.5367 124.426L58.0007 123.54ZM55.4387 123.54L55.9116 124.421L55.9191 124.417L55.4387 123.54ZM54.5147 124.492L55.3934 124.969L54.5147 124.492ZM54.5007 127.642L53.6142 128.104L53.6181 128.112L53.6221 128.119L54.5007 127.642ZM55.4247 128.608L54.9355 129.48L54.9437 129.485L54.9519 129.489L55.4247 128.608ZM56.6847 129.036C56.124 129.036 55.6397 128.91 55.2104 128.672L54.2391 130.42C54.9858 130.835 55.8081 131.036 56.6847 131.036V129.036ZM55.2163 128.675C54.8019 128.441 54.4737 128.113 54.2243 127.67L52.4812 128.65C52.9038 129.401 53.4903 129.997 54.2331 130.417L55.2163 128.675ZM54.2332 127.686C53.9962 127.246 53.8627 126.713 53.8627 126.06H51.8627C51.8627 126.993 52.056 127.861 52.4723 128.634L54.2332 127.686ZM53.8627 126.06C53.8627 125.423 53.998 124.905 54.2383 124.478L52.4952 123.498C52.0635 124.265 51.8627 125.129 51.8627 126.06H53.8627ZM54.2358 124.483C54.4928 124.031 54.8261 123.706 55.2417 123.482L54.2918 121.722C53.5314 122.132 52.9313 122.731 52.4977 123.493L54.2358 124.483ZM55.2524 123.476C55.6797 123.239 56.1683 123.112 56.7407 123.112V121.112C55.8572 121.112 55.0297 121.312 54.2811 121.728L55.2524 123.476ZM56.7407 123.112C57.3132 123.112 57.8017 123.239 58.2291 123.476L59.2004 121.728C58.4517 121.312 57.6243 121.112 56.7407 121.112V123.112ZM58.2398 123.482C58.6569 123.707 58.9834 124.027 59.2292 124.464L60.9723 123.484C60.5461 122.726 59.9485 122.131 59.1897 121.722L58.2398 123.482ZM59.235 124.474C59.4799 124.898 59.6187 125.416 59.6187 126.06H61.6187C61.6187 125.118 61.4122 124.244 60.9665 123.473L59.235 124.474ZM59.6187 126.06C59.6187 126.699 59.4775 127.221 59.2234 127.655L60.95 128.665C61.4053 127.886 61.6187 127.007 61.6187 126.06H59.6187ZM59.221 127.659C58.9661 128.1 58.6273 128.431 58.1929 128.669L59.1526 130.423C59.9129 130.007 60.5168 129.414 60.9525 128.66L59.221 127.659ZM58.1929 128.669C57.7529 128.909 57.257 129.036 56.6847 129.036V131.036C57.5685 131.036 58.3979 130.836 59.1526 130.423L58.1929 128.669ZM56.6847 129.916C57.3058 129.916 57.8972 129.768 58.4444 129.476L57.5011 127.712C57.2456 127.849 56.9784 127.916 56.6847 127.916V129.916ZM58.4444 129.476C59.0269 129.164 59.4814 128.7 59.8093 128.12L58.0682 127.136C57.9107 127.414 57.7212 127.594 57.5011 127.712L58.4444 129.476ZM59.8012 128.134C60.1623 127.519 60.3167 126.812 60.3167 126.06H58.3167C58.3167 126.54 58.2191 126.878 58.0763 127.122L59.8012 128.134ZM60.3167 126.06C60.3167 125.314 60.1695 124.612 59.8233 124L58.0822 124.984C58.2213 125.23 58.3167 125.574 58.3167 126.06H60.3167ZM59.8233 124C59.4971 123.423 59.0465 122.959 58.4647 122.654L57.5367 124.426C57.739 124.532 57.9231 124.702 58.0822 124.984L59.8233 124ZM58.4811 122.663C57.9383 122.366 57.3479 122.218 56.7267 122.218V124.218C57.0203 124.218 57.2792 124.285 57.5204 124.417L58.4811 122.663ZM56.7267 122.218C56.0999 122.218 55.5043 122.364 54.9584 122.663L55.9191 124.417C56.1572 124.287 56.4203 124.218 56.7267 124.218V122.218ZM54.9659 122.659C54.3906 122.967 53.9505 123.436 53.6361 124.014L55.3934 124.969C55.5457 124.689 55.7215 124.523 55.9116 124.421L54.9659 122.659ZM53.6361 124.014C53.305 124.624 53.1647 125.32 53.1647 126.06H55.1647C55.1647 125.568 55.2578 125.219 55.3934 124.969L53.6361 124.014ZM53.1647 126.06C53.1647 126.801 53.2971 127.497 53.6142 128.104L55.3873 127.179C55.2564 126.928 55.1647 126.57 55.1647 126.06H53.1647ZM53.6221 128.119C53.9349 128.695 54.3702 129.163 54.9355 129.48L55.914 127.736C55.714 127.624 55.5333 127.448 55.3794 127.164L53.6221 128.119ZM54.9519 129.489C55.4878 129.777 56.0715 129.916 56.6847 129.916V127.916C56.3834 127.916 56.1271 127.85 55.8976 127.727L54.9519 129.489ZM63.5678 119.55H64.5678V118.55H63.5678V119.55ZM63.5678 129.91V130.91H64.5678V129.91H63.5678ZM62.2938 129.91H61.2938V130.91H62.2938V129.91ZM62.2938 119.55V118.55H61.2938V119.55H62.2938ZM62.5678 119.55V129.91H64.5678V119.55H62.5678ZM63.5678 128.91H62.2938V130.91H63.5678V128.91ZM63.2938 129.91V119.55H61.2938V129.91H63.2938ZM62.2938 120.55H63.5678V118.55H62.2938V120.55ZM67.1251 129.546L66.6335 130.417L66.6395 130.42L67.1251 129.546ZM65.7531 128.16L64.8727 128.634L64.877 128.642L64.8816 128.65L65.7531 128.16ZM65.7671 123.988L64.8981 123.493L64.8956 123.498L65.7671 123.988ZM67.1671 122.602L67.6421 123.482L67.6528 123.476L67.1671 122.602ZM71.1151 122.602L70.6295 123.476L70.6402 123.482L71.1151 122.602ZM72.5011 123.974L71.6295 124.464L71.6354 124.474L72.5011 123.974ZM72.4871 128.16L71.6238 127.655L71.6214 127.659L72.4871 128.16ZM71.0731 129.546L71.5529 130.423L71.0731 129.546ZM71.3391 127.628L70.4767 127.122L70.4726 127.129L70.4686 127.136L71.3391 127.628ZM70.4011 123.54L69.9208 124.417L69.9289 124.421L69.9371 124.426L70.4011 123.54ZM67.8391 123.54L68.312 124.421L68.3194 124.417L67.8391 123.54ZM66.9151 124.492L67.7938 124.969L66.9151 124.492ZM66.9011 127.642L66.0145 128.104L66.0185 128.112L66.0225 128.119L66.9011 127.642ZM67.8251 128.608L67.3359 129.48L67.3441 129.485L67.3523 129.489L67.8251 128.608ZM69.0851 129.036C68.5244 129.036 68.0401 128.91 67.6108 128.672L66.6395 130.42C67.3862 130.835 68.2085 131.036 69.0851 131.036V129.036ZM67.6167 128.675C67.2023 128.441 66.8741 128.113 66.6247 127.67L64.8816 128.65C65.3041 129.401 65.8907 129.997 66.6335 130.417L67.6167 128.675ZM66.6336 127.686C66.3966 127.246 66.2631 126.713 66.2631 126.06H64.2631C64.2631 126.993 64.4564 127.861 64.8727 128.634L66.6336 127.686ZM66.2631 126.06C66.2631 125.423 66.3984 124.905 66.6387 124.478L64.8956 123.498C64.4639 124.265 64.2631 125.129 64.2631 126.06H66.2631ZM66.6362 124.483C66.8932 124.031 67.2265 123.706 67.6421 123.482L66.6922 121.722C65.9317 122.132 65.3317 122.731 64.8981 123.493L66.6362 124.483ZM67.6528 123.476C68.0801 123.239 68.5687 123.112 69.1411 123.112V121.112C68.2576 121.112 67.4301 121.312 66.6815 121.728L67.6528 123.476ZM69.1411 123.112C69.7136 123.112 70.2021 123.239 70.6295 123.476L71.6008 121.728C70.8521 121.312 70.0247 121.112 69.1411 121.112V123.112ZM70.6402 123.482C71.0573 123.707 71.3837 124.027 71.6296 124.464L73.3727 123.484C72.9465 122.726 72.3489 122.131 71.5901 121.722L70.6402 123.482ZM71.6354 124.474C71.8803 124.898 72.0191 125.416 72.0191 126.06H74.0191C74.0191 125.118 73.8126 124.244 73.3669 123.473L71.6354 124.474ZM72.0191 126.06C72.0191 126.699 71.8779 127.221 71.6238 127.655L73.3504 128.665C73.8057 127.886 74.0191 127.007 74.0191 126.06H72.0191ZM71.6214 127.659C71.3665 128.1 71.0277 128.431 70.5933 128.669L71.5529 130.423C72.3133 130.007 72.9171 129.414 73.3529 128.66L71.6214 127.659ZM70.5933 128.669C70.1533 128.909 69.6574 129.036 69.0851 129.036V131.036C69.9688 131.036 70.7983 130.836 71.5529 130.423L70.5933 128.669ZM69.0851 129.916C69.7062 129.916 70.2976 129.768 70.8448 129.476L69.9015 127.712C69.646 127.849 69.3787 127.916 69.0851 127.916V129.916ZM70.8448 129.476C71.4273 129.164 71.8818 128.7 72.2097 128.12L70.4686 127.136C70.3111 127.414 70.1216 127.594 69.9015 127.712L70.8448 129.476ZM72.2015 128.134C72.5627 127.519 72.7171 126.812 72.7171 126.06H70.7171C70.7171 126.54 70.6195 126.878 70.4767 127.122L72.2015 128.134ZM72.7171 126.06C72.7171 125.314 72.5699 124.612 72.2237 124L70.4826 124.984C70.6217 125.23 70.7171 125.574 70.7171 126.06H72.7171ZM72.2237 124C71.8975 123.423 71.4469 122.959 70.8651 122.654L69.9371 124.426C70.1394 124.532 70.3235 124.702 70.4826 124.984L72.2237 124ZM70.8814 122.663C70.3387 122.366 69.7483 122.218 69.1271 122.218V124.218C69.4207 124.218 69.6796 124.285 69.9208 124.417L70.8814 122.663ZM69.1271 122.218C68.5003 122.218 67.9047 122.364 67.3588 122.663L68.3194 124.417C68.5576 124.287 68.8207 124.218 69.1271 124.218V122.218ZM67.3663 122.659C66.791 122.967 66.3509 123.436 66.0365 124.014L67.7938 124.969C67.9461 124.689 68.1219 124.523 68.312 124.421L67.3663 122.659ZM66.0365 124.014C65.7054 124.624 65.5651 125.32 65.5651 126.06H67.5651C67.5651 125.568 67.6582 125.219 67.7938 124.969L66.0365 124.014ZM65.5651 126.06C65.5651 126.801 65.6975 127.497 66.0145 128.104L67.7877 127.179C67.6568 126.928 67.5651 126.57 67.5651 126.06H65.5651ZM66.0225 128.119C66.3353 128.695 66.7706 129.163 67.3359 129.48L68.3144 127.736C68.1144 127.624 67.9336 127.448 67.7798 127.164L66.0225 128.119ZM67.3523 129.489C67.8881 129.777 68.4719 129.916 69.0851 129.916V127.916C68.7837 127.916 68.5275 127.85 68.298 127.727L67.3523 129.489ZM79.5942 122.546L79.0893 123.409L79.0963 123.413L79.5942 122.546ZM80.7142 123.638L79.8392 124.122L81.7142 123.638H80.7142ZM80.7142 122.238V121.238H79.7142V122.238H80.7142ZM82.0022 122.238H83.0022V121.238H82.0022V122.238ZM81.5542 131.94L80.6786 131.457L80.6752 131.463L81.5542 131.94ZM80.2662 133.228L79.7843 132.352L79.7781 132.355L80.2662 133.228ZM75.8142 132.976L75.2362 133.792L75.8142 132.976ZM74.6242 131.03V130.03H73.4656L73.6349 131.176L74.6242 131.03ZM75.8842 131.03L76.842 130.743L76.6282 130.03H75.8842V131.03ZM76.7522 132.15L77.3028 131.315L77.2966 131.311L77.2902 131.307L76.7522 132.15ZM80.0422 131.926L79.3425 131.211L79.3351 131.219L80.0422 131.926ZM80.7142 128.468H81.7142V124.65L79.8426 127.978L80.7142 128.468ZM79.5942 129.588L79.0773 128.732L79.5942 129.588ZM75.9962 129.532L75.4753 130.386L75.4817 130.389L75.9962 129.532ZM74.6942 128.118L75.5803 127.654L74.6942 128.118ZM74.6942 123.988L75.5743 124.463L75.5773 124.457L74.6942 123.988ZM75.9962 122.602L75.4923 121.738L75.486 121.742L75.9962 122.602ZM79.4122 123.568L78.9007 124.427L78.9127 124.434L78.9248 124.441L79.4122 123.568ZM76.8082 123.554L76.3121 122.686V122.686L76.8082 123.554ZM75.8702 124.534L76.7488 125.011V125.011L75.8702 124.534ZM75.8702 127.586L74.9873 128.056L74.9916 128.063L75.8702 127.586ZM76.8082 128.58L76.2967 129.439L76.3044 129.444L76.3121 129.448L76.8082 128.58ZM79.4122 128.58L79.9084 129.448L79.9148 129.444L79.4122 128.58ZM80.3642 127.586L81.2429 128.063L81.2471 128.056L80.3642 127.586ZM77.8582 123.112C78.3715 123.112 78.7704 123.223 79.0893 123.409L80.0991 121.683C79.4287 121.291 78.6702 121.112 77.8582 121.112V123.112ZM79.0963 123.413C79.4676 123.626 79.6982 123.867 79.8392 124.122L81.5892 123.154C81.2449 122.531 80.7288 122.044 80.0921 121.679L79.0963 123.413ZM81.7142 123.638V122.238H79.7142V123.638H81.7142ZM80.7142 123.238H82.0022V121.238H80.7142V123.238ZM81.0022 122.238V130.078H83.0022V122.238H81.0022ZM81.0022 130.078C81.0022 130.632 80.8854 131.082 80.6786 131.457L82.4298 132.423C82.8204 131.715 83.0022 130.924 83.0022 130.078H81.0022ZM80.6752 131.463C80.4698 131.842 80.18 132.134 79.7843 132.352L80.7481 134.104C81.4724 133.706 82.0413 133.139 82.4332 132.417L80.6752 131.463ZM79.7781 132.355C79.4 132.567 78.9296 132.69 78.3342 132.69V134.69C79.2135 134.69 80.0311 134.505 80.7544 134.101L79.7781 132.355ZM78.3342 132.69C77.4862 132.69 76.8605 132.492 76.3922 132.16L75.2362 133.792C76.1119 134.412 77.1662 134.69 78.3342 134.69V132.69ZM76.3922 132.16C75.9451 131.843 75.6953 131.438 75.6135 130.884L73.6349 131.176C73.7958 132.265 74.3394 133.157 75.2362 133.792L76.3922 132.16ZM74.6242 132.03H75.8842V130.03H74.6242V132.03ZM74.9264 131.317C75.1402 132.03 75.5884 132.593 76.2142 132.993L77.2902 131.307C77.0386 131.146 76.9083 130.963 76.842 130.743L74.9264 131.317ZM76.2016 132.985C76.8302 133.399 77.5569 133.584 78.3342 133.584V131.584C77.8795 131.584 77.5515 131.479 77.3028 131.315L76.2016 132.985ZM78.3342 133.584C79.2623 133.584 80.0984 133.284 80.7493 132.633L79.3351 131.219C79.1087 131.445 78.8061 131.584 78.3342 131.584V133.584ZM80.7418 132.64C81.4298 131.967 81.7142 131.065 81.7142 130.078H79.7142C79.7142 130.678 79.5506 131.008 79.3426 131.211L80.7418 132.64ZM81.7142 130.078V128.468H79.7142V130.078H81.7142ZM79.8426 127.978C79.6854 128.257 79.4429 128.511 79.0773 128.732L80.1111 130.444C80.7349 130.067 81.239 129.575 81.5858 128.958L79.8426 127.978ZM79.0773 128.732C78.7604 128.923 78.3659 129.036 77.8582 129.036V131.036C78.6758 131.036 79.4387 130.85 80.1111 130.444L79.0773 128.732ZM77.8582 129.036C77.3499 129.036 76.9084 128.913 76.5107 128.674L75.4817 130.389C76.204 130.823 77.0038 131.036 77.8582 131.036V129.036ZM76.5171 128.678C76.1309 128.443 75.8189 128.111 75.5803 127.654L73.8081 128.581C74.2042 129.339 74.7602 129.949 75.4753 130.386L76.5171 128.678ZM75.5803 127.654C75.3471 127.209 75.2182 126.681 75.2182 126.046H73.2182C73.2182 126.961 73.4066 127.814 73.8081 128.581L75.5803 127.654ZM75.2182 126.046C75.2182 125.399 75.3483 124.882 75.5742 124.463L73.8142 123.513C73.4055 124.27 73.2182 125.125 73.2182 126.046H75.2182ZM75.5773 124.457C75.8136 124.012 76.1226 123.69 76.5064 123.462L75.486 121.742C74.7685 122.168 74.2094 122.769 73.8111 123.519L75.5773 124.457ZM76.5001 123.466C76.8992 123.233 77.3445 123.112 77.8582 123.112V121.112C77.0092 121.112 76.2132 121.318 75.4923 121.738L76.5001 123.466ZM81.7142 126.06C81.7142 125.345 81.5693 124.671 81.2428 124.07L79.4856 125.025C79.6258 125.283 79.7142 125.617 79.7142 126.06H81.7142ZM81.2428 124.07C80.9251 123.486 80.4767 123.017 79.8996 122.695L78.9248 124.441C79.1504 124.567 79.3366 124.751 79.4856 125.025L81.2428 124.07ZM79.9237 122.709C79.3701 122.379 78.7581 122.218 78.1102 122.218V124.218C78.4143 124.218 78.6703 124.29 78.9007 124.427L79.9237 122.709ZM78.1102 122.218C77.47 122.218 76.8635 122.371 76.3121 122.686L77.3044 124.422C77.537 124.289 77.7984 124.218 78.1102 124.218V122.218ZM76.3121 122.686C75.7455 123.009 75.3061 123.478 74.9916 124.056L76.7488 125.011C76.901 124.731 77.0869 124.546 77.3044 124.422L76.3121 122.686ZM74.9916 124.056C74.6651 124.657 74.5202 125.331 74.5202 126.046H76.5202C76.5202 125.603 76.6086 125.269 76.7488 125.011L74.9916 124.056ZM74.5202 126.046C74.5202 126.768 74.6641 127.448 74.9873 128.056L76.7531 127.116C76.6096 126.847 76.5202 126.5 76.5202 126.046H74.5202ZM74.9916 128.063C75.3044 128.639 75.7392 129.107 76.2967 129.439L77.3197 127.721C77.0932 127.586 76.9027 127.391 76.7488 127.108L74.9916 128.063ZM76.3121 129.448C76.8635 129.763 77.47 129.916 78.1102 129.916V127.916C77.7984 127.916 77.537 127.845 77.3044 127.712L76.3121 129.448ZM78.1102 129.916C78.7504 129.916 79.357 129.763 79.9084 129.448L78.9161 127.712C78.6835 127.845 78.422 127.916 78.1102 127.916V129.916ZM79.9148 129.444C80.4831 129.114 80.9268 128.645 81.2428 128.063L79.4856 127.108C79.335 127.386 79.144 127.579 78.9096 127.715L79.9148 129.444ZM81.2471 128.056C81.5691 127.45 81.7142 126.775 81.7142 126.06H79.7142C79.7142 126.502 79.626 126.844 79.4813 127.116L81.2471 128.056ZM90.7631 122.238L91.6886 122.617L92.2532 121.238H90.7631V122.238ZM86.1432 133.522V134.522H86.8143L87.0686 133.901L86.1432 133.522ZM84.8271 133.522L83.9016 133.143L83.3376 134.522H84.8271V133.522ZM86.3391 129.826L87.2647 130.205L87.4193 129.827L87.2651 129.448L86.3391 129.826ZM83.2451 122.238V121.238H81.7575L82.3192 122.615L83.2451 122.238ZM84.6591 122.238L85.5916 121.877L85.3442 121.238H84.6591V122.238ZM87.0671 128.454L86.1347 128.815L87.0726 131.236L88.001 128.811L87.0671 128.454ZM89.4472 122.238V121.238H88.7592L88.5133 121.88L89.4472 122.238ZM89.8377 121.859L85.2177 133.143L87.0686 133.901L91.6886 122.617L89.8377 121.859ZM86.1432 132.522H84.8271V134.522H86.1432V132.522ZM85.7527 133.901L87.2647 130.205L85.4136 129.447L83.9016 133.143L85.7527 133.901ZM87.2651 129.448L84.1711 121.86L82.3192 122.615L85.4132 130.203L87.2651 129.448ZM83.2451 123.238H84.6591V121.238H83.2451V123.238ZM83.7267 122.599L86.1347 128.815L87.9996 128.093L85.5916 121.877L83.7267 122.599ZM88.001 128.811L90.381 122.595L88.5133 121.88L86.1333 128.096L88.001 128.811ZM89.4472 123.238H90.7631V121.238H89.4472V123.238Z" fill="#666666" mask="url(#path-24-inside-1_34_711)"/>
<path d="M111 9V145" stroke="#666666"/>
<path d="M114.119 6.7002H205.667V19.7002H114.119V6.7002Z" fill="#295B58"/>
<path d="M114.119 23.7002H198.128V36.7002H114.119V23.7002Z" fill="#295B58"/>
<path d="M114.119 40.7002H202.436V53.7002H114.119V40.7002Z" fill="#295B58"/>
<path d="M114.119 58H212.847V71H114.119V58Z" fill="#295B58"/>
<path d="M114.119 74.7002H187.357V87.7002H114.119V74.7002Z" fill="#295B58"/>
<path d="M114.119 91.7002H180.895V104.7H114.119V91.7002Z" fill="#387975"/>
<path d="M114.119 108.7H176.587V121.7H114.119V108.7Z" fill="#387975"/>
<path d="M114.119 125.7H173.356V138.7H114.119V125.7Z" fill="#387975"/>
<g clip-path="url(#clip0_34_711)">
<path d="M110.48 178.52H124.48V189.02H110.48V178.52Z" fill="black"/>
</g>
<path d="M131.135 181.908C133.967 182.532 135.519 183.124 135.519 185.284C135.519 187.732 133.343 188.692 131.343 188.692C128.207 188.692 126.831 186.964 126.527 185.028H128.351C128.687 186.324 129.551 186.996 131.327 186.996C132.831 186.996 133.695 186.404 133.695 185.364C133.695 184.324 132.783 184.148 130.703 183.684C128.527 183.204 126.831 182.596 126.831 180.5C126.831 178.276 128.799 177.108 130.943 177.108C133.759 177.108 135.055 178.564 135.375 180.34H133.551C133.231 179.412 132.463 178.804 130.959 178.804C129.455 178.804 128.639 179.476 128.639 180.452C128.639 181.252 129.279 181.508 131.135 181.908ZM141.496 188.692C138.888 188.692 136.936 186.724 136.936 184.1C136.936 181.476 138.888 179.508 141.512 179.508C143.592 179.508 145.432 180.772 145.832 182.9H143.96C143.624 181.796 142.648 181.188 141.512 181.188C139.88 181.188 138.76 182.404 138.76 184.1C138.76 185.812 139.912 187.012 141.496 187.012C142.648 187.012 143.624 186.372 143.96 185.284H145.832C145.416 187.46 143.56 188.692 141.496 188.692ZM151.762 179.508C154.29 179.508 156.322 181.444 156.322 184.1C156.322 186.74 154.322 188.692 151.762 188.692C149.218 188.692 147.202 186.724 147.202 184.1C147.202 181.444 149.25 179.508 151.762 179.508ZM151.762 181.236C150.242 181.236 149.026 182.404 149.026 184.1C149.026 185.796 150.226 186.964 151.762 186.964C153.298 186.964 154.498 185.796 154.498 184.1C154.498 182.404 153.282 181.236 151.762 181.236ZM162.866 179.508C163.09 179.508 163.266 179.524 163.394 179.556V181.396C163.234 181.38 163.09 181.364 162.85 181.364C161.202 181.364 159.938 182.292 159.938 184.468V188.5H158.13V179.7H159.938V181.444C160.466 180.212 161.474 179.508 162.866 179.508ZM168.933 179.508C171.765 179.508 173.557 181.7 173.381 184.596H166.229C166.373 186.212 167.509 187.108 168.981 187.108C170.037 187.108 170.917 186.66 171.333 185.796H173.205C172.517 187.764 170.837 188.692 168.965 188.692C166.293 188.692 164.389 186.772 164.389 184.116C164.389 181.46 166.277 179.508 168.933 179.508ZM168.933 181.076C167.557 181.076 166.629 181.94 166.325 183.124H171.445C171.173 181.924 170.261 181.076 168.933 181.076Z" fill="#09090B"/>
<defs>
<clipPath id="clip0_34_711">
<rect width="14" height="14" fill="white" transform="translate(110.48 176.77)"/>
</clipPath>
</defs>
</svg>
