<svg xmlns="http://www.w3.org/2000/svg" width="32" height="32" viewBox="0 0 32 32" fill="none">
  <path d="M16 22.6667H16.0133" stroke="#09090B" stroke-width="2.66667" stroke-linecap="round" stroke-linejoin="round"/>
  <path d="M20 2.66669H8.00004C7.2928 2.66669 6.61452 2.94764 6.11442 3.44774C5.61433 3.94783 5.33337 4.62611 5.33337 5.33335V26.6667C5.33337 27.3739 5.61433 28.0522 6.11442 28.5523C6.61452 29.0524 7.2928 29.3334 8.00004 29.3334H24C24.7073 29.3334 25.3856 29.0524 25.8857 28.5523C26.3858 28.0522 26.6667 27.3739 26.6667 26.6667V9.33335L20 2.66669Z" stroke="#09090B" stroke-width="2.66667" stroke-linecap="round" stroke-linejoin="round"/>
  <path d="M12.1333 12C12.4533 11.1182 13.073 10.3769 13.8841 9.90566C14.6953 9.43444 15.6462 9.2633 16.5708 9.42216C17.4953 9.58101 18.3346 10.0598 18.9419 10.7747C19.5493 11.4896 19.886 12.3953 19.8933 13.3334C19.8933 16 15.8933 17.3334 15.8933 17.3334" stroke="#09090B" stroke-width="2.66667" stroke-linecap="round" stroke-linejoin="round"/>
</svg>